<svg width="16" height="16" viewBox="0 0 16 16" fill="none" xmlns="http://www.w3.org/2000/svg">
<path fill-rule="evenodd" clip-rule="evenodd" d="M1.33334 8.00001C1.33334 4.85731 1.33334 3.28596 2.30965 2.30966C3.28596 1.33334 4.8573 1.33334 8 1.33334C11.1427 1.33334 12.7141 1.33334 13.6903 2.30966C14.6667 3.28596 14.6667 4.85731 14.6667 8.00001C14.6667 11.1427 14.6667 12.7141 13.6903 13.6903C12.7141 14.6667 11.1427 14.6667 8 14.6667C4.8573 14.6667 3.28596 14.6667 2.30965 13.6903C1.33334 12.7141 1.33334 11.1427 1.33334 8.00001ZM8 4.16668C8.27614 4.16668 8.5 4.39054 8.5 4.66668V8.12621L9.64647 6.97981C9.84174 6.78454 10.1583 6.78454 10.3535 6.97981C10.5488 7.17508 10.5488 7.49161 10.3535 7.68688L8.35354 9.68688C8.2598 9.78068 8.1326 9.83334 8 9.83334C7.8674 9.83334 7.7402 9.78068 7.64647 9.68688L5.64645 7.68688C5.45119 7.49161 5.45119 7.17508 5.64645 6.97981C5.84171 6.78454 6.1583 6.78454 6.35356 6.97981L7.5 8.12621V4.66668C7.5 4.39054 7.72387 4.16668 8 4.16668ZM5.33334 10.8333C5.0572 10.8333 4.83334 11.0572 4.83334 11.3333C4.83334 11.6095 5.0572 11.8333 5.33334 11.8333H10.6667C10.9428 11.8333 11.1667 11.6095 11.1667 11.3333C11.1667 11.0572 10.9428 10.8333 10.6667 10.8333H5.33334Z" fill="url(#paint0_linear_14_213)"/>
<defs>
<linearGradient id="paint0_linear_14_213" x1="8" y1="1.33334" x2="8" y2="14.6667" gradientUnits="userSpaceOnUse">
<stop stop-color="white"/>
<stop offset="1" stop-color="#999999"/>
</linearGradient>
</defs>
</svg>
