<svg width="16" height="16" viewBox="0 0 16 16" fill="none" xmlns="http://www.w3.org/2000/svg">
<path d="M8.02006 5.83708e-05C6.11737 -0.00730551 4.2746 0.682303 2.82325 1.94481C1.3719 3.20731 0.407269 4.95986 0.102906 6.88711C-0.201457 8.81434 0.174428 10.7898 1.16293 12.458C2.15144 14.1262 3.68769 15.3777 5.49526 15.9873C5.89474 16.0529 6.02257 15.7987 6.02257 15.5774V14.1918C3.80937 14.6837 3.33797 13.1178 3.33797 13.1178C3.18874 12.6086 2.86529 12.1719 2.42712 11.888C1.70004 11.3797 2.48305 11.3961 2.48305 11.3961C2.73385 11.4294 2.97409 11.5204 3.18577 11.6624C3.39746 11.8044 3.57511 11.9936 3.70551 12.2159C3.92746 12.6209 4.29623 12.9195 4.73163 13.047C5.16703 13.1744 5.63383 13.1203 6.03057 12.8964C6.06697 12.4808 6.24523 12.0917 6.53394 11.7978C4.82409 11.6175 2.92249 10.9124 2.92249 7.78871C2.89937 6.97006 3.18569 6.17394 3.72149 5.56689C3.47823 4.86134 3.5068 4.08711 3.80137 3.40249C3.80137 3.40249 4.47254 3.18111 5.9986 4.22234C7.30703 3.8614 8.68514 3.8614 9.99354 4.22234C11.5196 3.16471 12.1908 3.40249 12.1908 3.40249C12.4853 4.08711 12.5139 4.86134 12.2707 5.56689C12.8065 6.17394 13.0928 6.97006 13.0697 7.78871C13.0697 10.9206 11.2 11.6093 9.41829 11.8142C9.61017 12.0121 9.75863 12.2499 9.85371 12.5114C9.9488 12.773 9.98829 13.0524 9.96957 13.331V15.5774C9.96957 15.7987 10.0974 16.0611 10.5049 15.9873C12.3092 15.3788 13.8432 14.1307 14.8319 12.4667C15.8206 10.8028 16.1994 8.83189 15.9003 6.9074C15.6011 4.98289 14.6437 3.23063 13.1996 1.96484C11.7555 0.699048 9.91929 0.0024896 8.02006 5.83708e-05Z" fill="url(#paint0_linear_12_45)"/>
<defs>
<linearGradient id="paint0_linear_12_45" x1="8" y1="0" x2="8" y2="16" gradientUnits="userSpaceOnUse">
<stop stop-color="white"/>
<stop offset="1" stop-color="#999999"/>
</linearGradient>
</defs>
</svg>
