<svg width="14" height="14" viewBox="0 0 14 14" fill="none" xmlns="http://www.w3.org/2000/svg">
<path d="M12.12 0.279999H1.88C0.996799 0.279999 0.279999 0.996799 0.279999 1.88V12.12C0.279999 13.0032 0.996799 13.72 1.88 13.72H12.12C13.0032 13.72 13.72 13.0032 13.72 12.12V1.88C13.72 0.996799 13.0032 0.279999 12.12 0.279999ZM4.44 5.4V11.48H2.52V5.4H4.44ZM2.52 3.6304C2.52 3.1824 2.904 2.84 3.48 2.84C4.056 2.84 4.4176 3.1824 4.44 3.6304C4.44 4.0784 4.0816 4.44 3.48 4.44C2.904 4.44 2.52 4.0784 2.52 3.6304ZM11.48 11.48H9.56C9.56 11.48 9.56 8.5168 9.56 8.28C9.56 7.64 9.24 7 8.44 6.9872H8.4144C7.64 6.9872 7.32 7.6464 7.32 8.28C7.32 8.5712 7.32 11.48 7.32 11.48H5.4V5.4H7.32V6.2192C7.32 6.2192 7.9376 5.4 9.1792 5.4C10.4496 5.4 11.48 6.2736 11.48 8.0432V11.48Z" fill="url(#paint0_linear_12_43)"/>
<defs>
<linearGradient id="paint0_linear_12_43" x1="7" y1="0.279999" x2="7" y2="13.72" gradientUnits="userSpaceOnUse">
<stop stop-color="white"/>
<stop offset="1" stop-color="#999999"/>
</linearGradient>
</defs>
</svg>
