<svg width="16" height="16" viewBox="0 0 16 16" fill="none" xmlns="http://www.w3.org/2000/svg">
<rect width="16" height="16" fill="black"/>
<path d="M11.3333 2.33334H4.66665C2.66665 2.33334 1.33331 3.33334 1.33331 5.66668V10.3333C1.33331 12.6667 2.66665 13.6667 4.66665 13.6667H11.3333C13.3333 13.6667 14.6666 12.6667 14.6666 10.3333V5.66668C14.6666 3.33334 13.3333 2.33334 11.3333 2.33334ZM11.6466 6.39334L9.55998 8.06001C9.11998 8.41334 8.55998 8.58668 7.99998 8.58668C7.43998 8.58668 6.87331 8.41334 6.43998 8.06001L4.35331 6.39334C4.13998 6.22001 4.10665 5.90001 4.27331 5.68668C4.44665 5.47334 4.75998 5.43334 4.97331 5.60668L7.05998 7.27334C7.56665 7.68001 8.42665 7.68001 8.93331 7.27334L11.02 5.60668C11.2333 5.43334 11.5533 5.46668 11.72 5.68668C11.8933 5.90001 11.86 6.22001 11.6466 6.39334Z" fill="url(#paint0_linear_12_175)"/>
<defs>
<linearGradient id="paint0_linear_12_175" x1="7.99998" y1="2.33334" x2="7.99998" y2="13.6667" gradientUnits="userSpaceOnUse">
<stop stop-color="white"/>
<stop offset="1" stop-color="#999999"/>
</linearGradient>
</defs>
</svg>
