<svg width="57" height="27" viewBox="0 0 57 27" fill="none" xmlns="http://www.w3.org/2000/svg">
<path d="M0.469727 14.2935V12.8237C0.469727 8.72217 1.42676 5.67448 3.34082 3.68066C5.25488 1.68685 7.72721 0.689941 10.7578 0.689941C13.6859 0.689941 15.9759 1.44759 17.6279 2.96289C19.2799 4.47819 20.106 6.52897 20.106 9.11523V9.86719H15.5601V8.91016C15.5601 7.41764 15.1613 6.25553 14.3638 5.42383C13.5776 4.59212 12.3813 4.17627 10.7749 4.17627C9.1001 4.17627 7.76709 4.80859 6.77588 6.07324C5.78467 7.33789 5.28906 9.3374 5.28906 12.0718V15.0454C5.28906 17.6659 5.78467 19.6426 6.77588 20.9756C7.77848 22.2972 9.12858 22.958 10.8262 22.958C12.3643 22.958 13.5207 22.5365 14.2954 21.6934C15.0815 20.8389 15.5031 19.6312 15.5601 18.0703V17.2842H20.106V18.1729C20.0262 20.6224 19.1831 22.6105 17.5767 24.1372C15.9702 25.6639 13.6916 26.4272 10.7407 26.4272C7.63037 26.4272 5.14095 25.4189 3.27246 23.4023C1.40397 21.3743 0.469727 18.3381 0.469727 14.2935ZM23.4385 26V1.11719H28.0698V22.3428H38.4775V26H23.4385ZM41.2803 26V1.11719H45.9116V22.3428H56.3193V26H41.2803Z" fill="#957D1A"/>
</svg>
