<svg width="634" height="501" viewBox="0 0 634 501" fill="none" xmlns="http://www.w3.org/2000/svg">
<g clip-path="url(#clip0_64_17)">
<path d="M330 305.685C330 311.382 334.618 316 340.315 316H399.685C405.382 316 410 311.382 410 305.685V246.315C410 240.618 405.382 236 399.685 236H340.315C334.618 236 330 240.618 330 246.315V305.685Z" fill="url(#paint0_linear_64_17)"/>
<path d="M363.174 271.387V260.058H373.147C374.096 260.058 375.012 260.137 375.894 260.295C376.776 260.453 377.556 260.736 378.235 261.143C378.913 261.55 379.456 262.115 379.863 262.839C380.27 263.563 380.473 264.49 380.473 265.621C380.473 267.656 379.863 269.126 378.642 270.03C377.421 270.935 375.86 271.387 373.961 271.387H363.174ZM352.523 251.781V300.219H375.996C378.167 300.219 380.281 299.947 382.339 299.405C384.397 298.862 386.228 298.025 387.834 296.895C389.44 295.764 390.717 294.305 391.667 292.519C392.617 290.732 393.092 288.618 393.092 286.176C393.092 283.146 392.357 280.557 390.887 278.408C389.417 276.26 387.19 274.756 384.205 273.897C386.375 272.857 388.015 271.523 389.123 269.894C390.231 268.266 390.785 266.231 390.785 263.789C390.785 261.528 390.412 259.628 389.666 258.09C388.919 256.553 387.868 255.32 386.511 254.393C385.154 253.466 383.526 252.799 381.627 252.392C379.727 251.985 377.624 251.781 375.318 251.781H352.523ZM363.174 291.942V278.646H374.775C377.081 278.646 378.936 279.177 380.338 280.24C381.74 281.303 382.441 283.078 382.441 285.565C382.441 286.832 382.226 287.872 381.796 288.686C381.367 289.5 380.79 290.145 380.066 290.619C379.343 291.094 378.506 291.434 377.556 291.637C376.607 291.841 375.612 291.942 374.571 291.942H363.174Z" fill="url(#paint1_linear_64_17)"/>
</g>
<g clip-path="url(#clip1_64_17)">
<path d="M346 205C373.614 205 396 182.614 396 155C396 127.386 373.614 105 346 105C318.386 105 296 127.386 296 155C296 182.614 318.386 205 346 205Z" fill="url(#paint2_linear_64_17)"/>
<path d="M359.365 148.891C356.207 134.952 348.743 130.369 347.939 128.618C347.061 127.383 346.17 125.186 346.17 125.186C346.155 125.148 346.132 125.083 346.104 125.02C346.014 126.255 345.967 126.731 344.799 127.978C342.99 129.392 333.711 137.178 332.956 153.014C332.252 167.783 343.625 176.584 345.163 177.706L345.338 177.83V177.819C345.348 177.894 345.826 181.335 346.162 184.981H347.367C347.65 182.404 348.074 179.844 348.637 177.312L348.734 177.249C349.422 176.756 350.078 176.219 350.698 175.643L350.769 175.579C354.038 172.559 359.916 165.572 359.858 154.434C359.846 152.576 359.681 150.722 359.365 148.891ZM346.034 169.367C346.034 169.367 346.034 148.652 346.718 148.656C347.251 148.656 347.941 175.376 347.941 175.376C346.992 175.262 346.034 170.979 346.034 169.367Z" fill="url(#paint3_linear_64_17)"/>
</g>
<g clip-path="url(#clip2_64_17)">
<path d="M160 401H260V501H160V401Z" fill="url(#paint4_linear_64_17)"/>
<path d="M186.294 484.567L193.946 479.936C195.423 482.554 196.766 484.768 199.987 484.768C203.075 484.768 205.022 483.56 205.022 478.862V446.91H214.419V478.995C214.419 488.728 208.714 493.159 200.39 493.159C192.872 493.159 188.509 489.265 186.293 484.566" fill="url(#paint5_linear_64_17)"/>
<path d="M219.524 483.56L227.176 479.13C229.19 482.42 231.808 484.836 236.439 484.836C240.333 484.836 242.816 482.889 242.816 480.204C242.816 476.982 240.265 475.841 235.969 473.962L233.62 472.954C226.84 470.068 222.343 466.443 222.343 458.791C222.343 451.743 227.713 446.372 236.104 446.372C242.078 446.372 246.374 448.453 249.462 453.891L242.145 458.589C240.534 455.703 238.789 454.562 236.104 454.562C233.352 454.562 231.606 456.307 231.606 458.589C231.606 461.409 233.352 462.55 237.379 464.296L239.728 465.302C247.716 468.726 252.214 472.216 252.214 480.07C252.214 488.528 245.568 493.159 236.641 493.159C227.914 493.159 222.276 488.998 219.524 483.56Z" fill="url(#paint6_linear_64_17)"/>
</g>
<path d="M205.125 187.812C208.042 176.146 215.333 170.312 227 170.312C244.5 170.312 246.688 183.437 255.438 185.625C261.271 187.083 266.375 184.896 270.75 179.062C267.833 190.729 260.542 196.562 248.875 196.562C231.375 196.562 229.188 183.438 220.438 181.25C214.604 179.792 209.5 181.979 205.125 187.812ZM183.25 214.062C186.167 202.396 193.458 196.562 205.125 196.562C222.625 196.562 224.812 209.687 233.562 211.875C239.396 213.333 244.5 211.146 248.875 205.312C245.958 216.979 238.667 222.812 227 222.812C209.5 222.812 207.312 209.688 198.562 207.5C192.729 206.042 187.625 208.229 183.25 214.062Z" fill="url(#paint7_linear_64_17)"/>
<path d="M352.155 391.377C372.743 375.394 362.177 365 362.177 365C363.749 381.523 345.166 385.424 340.184 396.779C336.785 404.527 342.512 411.31 352.148 419.861C351.297 417.967 349.983 416.127 348.653 414.264C344.115 407.91 339.389 401.291 352.155 391.377Z" fill="url(#paint8_linear_64_17)"/>
<path d="M355.442 423.366C355.442 423.366 361.636 418.368 356.731 412.815C340.103 393.975 374.917 385.424 374.917 385.424C353.662 395.664 356.835 401.742 362.177 409.126C367.897 417.043 355.442 423.366 355.442 423.366Z" fill="url(#paint9_linear_64_17)"/>
<path d="M373.678 438.267C392.757 428.518 383.936 419.149 377.779 420.412C376.269 420.72 375.597 420.988 375.597 420.988C375.597 420.988 376.157 420.125 377.227 419.751C389.408 415.54 398.776 432.172 373.295 438.759C373.295 438.759 373.59 438.499 373.678 438.267Z" fill="url(#paint10_linear_64_17)"/>
<path d="M333.978 425.928C322.041 424.36 340.523 420.043 340.523 420.043C340.523 420.043 333.346 419.567 324.519 423.763C314.081 428.729 350.338 430.987 369.106 426.133C371.058 424.822 373.754 423.687 373.754 423.687C373.754 423.687 366.074 425.036 358.425 425.67C349.066 426.441 339.018 426.592 333.978 425.928Z" fill="url(#paint11_linear_64_17)"/>
<path d="M338.52 435.237C331.863 434.56 336.222 431.387 336.222 431.387C318.997 437.009 345.806 443.384 369.875 436.463C367.316 435.576 365.689 433.954 365.689 433.954C353.926 436.182 347.128 436.11 338.52 435.237Z" fill="url(#paint12_linear_64_17)"/>
<path d="M341.42 445.31C334.769 444.558 338.655 442.336 338.655 442.336C323.019 446.632 348.165 455.508 368.073 447.118C364.812 445.871 362.478 444.432 362.478 444.432C353.597 446.084 349.478 446.214 341.42 445.31Z" fill="url(#paint13_linear_64_17)"/>
<path d="M383.058 450.434C383.058 450.434 385.934 452.764 379.891 454.566C368.4 457.989 332.065 459.023 321.972 454.703C318.343 453.151 325.148 450.997 327.288 450.544C329.52 450.068 330.796 450.157 330.796 450.157C326.761 447.362 304.714 455.646 319.597 458.018C360.186 464.491 393.587 455.103 383.058 450.434Z" fill="url(#paint14_linear_64_17)"/>
<path d="M389.5 455.525C388.834 464.046 360.712 465.838 342.398 464.686C330.451 463.932 328.057 462.049 328.022 462.022C339.456 463.876 358.734 464.213 374.365 461.32C388.22 458.755 389.5 455.525 389.5 455.525Z" fill="url(#paint15_linear_64_17)"/>
<path fill-rule="evenodd" clip-rule="evenodd" d="M261.676 228.25C254.81 228.25 249.245 233.639 249.245 240.287V248.62H270.761V250.935H239.682C232.816 250.935 227.25 256.324 227.25 262.972V281.028C227.25 287.676 232.816 293.065 239.682 293.065H246.854V282.88C246.854 276.232 252.42 270.843 259.286 270.843H282.236C288.046 270.843 292.755 266.283 292.755 260.658V240.287C292.755 233.639 287.19 228.25 280.324 228.25H261.676ZM258.807 243.065C261.184 243.065 263.111 241.199 263.111 238.898C263.111 236.597 261.184 234.731 258.807 234.731C256.431 234.731 254.504 236.597 254.504 238.898C254.504 241.199 256.431 243.065 258.807 243.065Z" fill="url(#paint16_linear_64_17)"/>
<path fill-rule="evenodd" clip-rule="evenodd" d="M280.323 315.75C287.189 315.75 292.755 310.361 292.755 303.713V295.38H271.238V293.065H302.318C309.184 293.065 314.749 287.676 314.749 281.028V262.972C314.749 256.324 309.184 250.935 302.318 250.935H295.146V261.12C295.146 267.768 289.58 273.157 282.714 273.157H259.763C253.953 273.157 249.244 277.717 249.244 283.342V303.713C249.244 310.361 254.81 315.75 261.676 315.75H280.323ZM283.192 300.935C280.815 300.935 278.889 302.801 278.889 305.102C278.889 307.403 280.815 309.268 283.192 309.268C285.569 309.268 287.495 307.403 287.495 305.102C287.495 302.801 285.569 300.935 283.192 300.935Z" fill="url(#paint17_linear_64_17)"/>
<path d="M173.855 238C174.561 236.792 175 235.431 175 234.209V191.791C175 190.569 174.562 189.208 173.855 188L130 213L173.855 238Z" fill="url(#paint18_linear_64_17)"/>
<path d="M133.897 262.083L171.103 240.874C172.175 240.263 173.149 239.208 173.855 238L130 213L86.145 238C86.8512 239.208 87.8256 240.263 88.8971 240.874L126.103 262.083C128.246 263.306 131.754 263.306 133.897 262.083Z" fill="url(#paint19_linear_64_17)"/>
<path d="M173.855 188C173.149 186.792 172.174 185.737 171.103 185.126L133.897 163.917C131.754 162.694 128.246 162.694 126.103 163.917L88.8971 185.126C86.7535 186.348 85 189.347 85 191.791V234.209C85 235.431 85.4385 236.792 86.145 238L130 213L173.855 188Z" fill="url(#paint20_linear_64_17)"/>
<path d="M130 242.621C113.458 242.621 100 229.333 100 213C100 196.667 113.458 183.379 130 183.379C140.674 183.379 150.629 189.051 155.98 198.18L142.996 205.598C140.319 201.029 135.338 198.19 130 198.19C121.729 198.19 115 204.833 115 213C115 221.167 121.729 227.811 130 227.811C135.339 227.811 140.319 224.972 142.997 220.401L155.981 227.819C150.63 236.949 140.675 242.621 130 242.621Z" fill="url(#paint21_linear_64_17)"/>
<path d="M156.666 208.063H153.333V211.354H150V214.646H153.333V217.937H156.666V214.646H160V211.354H156.666V208.063ZM169.166 208.063H165.833V211.354H162.5V214.646H165.833V217.937H169.166V214.646H172.5V211.354H169.166V208.063Z" fill="url(#paint22_linear_64_17)"/>
<path d="M463.372 204.925C463.372 200.442 459.624 196.808 455 196.808C450.377 196.808 446.628 200.442 446.628 204.925C446.628 209.408 450.377 213.042 455 213.042C459.624 213.042 463.372 209.408 463.372 204.925Z" fill="url(#paint23_linear_64_17)"/>
<path fill-rule="evenodd" clip-rule="evenodd" d="M482.189 189.855C483.957 182.89 486.179 169.973 478.345 165.594C470.548 161.234 460.401 169.589 455.043 174.604C449.701 169.639 439.27 161.32 431.443 165.713C423.648 170.088 426.052 182.79 427.859 189.799C420.588 191.801 408.125 196.114 408.125 204.925C408.125 213.711 420.575 218.402 427.803 220.403C425.989 227.451 423.706 239.972 431.51 244.337C439.367 248.729 449.766 240.608 455.173 235.538C460.565 240.582 470.614 248.757 478.413 244.379C486.236 239.988 484.199 227.245 482.392 220.195C489.398 218.191 501.875 213.601 501.875 204.925C501.875 196.198 489.345 191.851 482.189 189.855ZM481.301 216.459C480.114 212.817 478.513 208.945 476.553 204.944C478.423 201.038 479.963 197.215 481.116 193.597C486.362 195.071 497.87 198.442 497.87 204.925C497.87 211.469 486.827 214.871 481.301 216.459ZM476.406 241.019C470.588 244.284 461.944 236.467 457.962 232.753C460.604 229.951 463.244 226.694 465.82 223.078C470.353 222.688 474.634 222.051 478.518 221.18C479.789 226.167 482.251 237.738 476.406 241.019ZM433.511 240.972C427.692 237.719 430.352 226.546 431.686 221.354C435.526 222.178 439.777 222.77 444.32 223.127C446.913 226.666 449.63 229.919 452.368 232.768C448.985 235.94 439.358 244.241 433.511 240.972ZM412.13 204.925C412.13 198.356 423.569 195.01 428.934 193.539C430.108 197.239 431.647 201.107 433.504 205.019C431.623 208.989 430.062 212.919 428.878 216.662C423.762 215.242 412.13 211.497 412.13 204.925ZM433.449 169.074C439.292 165.794 448.358 173.781 452.237 177.375C449.514 180.211 446.822 183.439 444.251 186.958C439.842 187.354 435.621 187.99 431.741 188.843C430.285 183.19 427.612 172.349 433.449 169.074ZM468.685 191.178C471.677 191.544 474.543 192.031 477.233 192.627C476.426 195.137 475.419 197.763 474.233 200.454C472.514 197.292 470.668 194.192 468.685 191.178ZM455.045 180.15C456.892 182.091 458.742 184.257 460.562 186.608C456.87 186.438 453.173 186.438 449.481 186.605C451.303 184.276 453.169 182.113 455.045 180.15ZM435.802 200.451C434.635 197.769 433.637 195.132 432.823 192.586C435.497 192.006 438.35 191.531 441.322 191.171C439.333 194.179 437.491 197.277 435.802 200.451ZM441.407 218.955C438.337 218.623 435.441 218.173 432.767 217.608C433.595 215.017 434.615 212.323 435.806 209.584C437.519 212.792 439.389 215.919 441.407 218.955ZM455.156 229.973C453.258 227.987 451.364 225.791 449.515 223.428C453.227 223.57 456.947 223.57 460.659 223.409C458.834 225.815 456.99 228.015 455.156 229.973ZM474.271 209.444C475.524 212.214 476.58 214.893 477.419 217.44C474.701 218.042 471.766 218.526 468.674 218.886C470.672 215.815 472.547 212.667 474.271 209.444ZM463.585 219.357C457.907 219.75 452.193 219.746 446.512 219.389C443.284 214.817 440.411 210.009 437.93 205.018C440.399 200.037 443.251 195.239 446.464 190.674C452.148 190.258 457.868 190.257 463.553 190.677C466.738 195.241 469.586 200.027 472.112 204.963C469.616 209.941 466.748 214.749 463.585 219.357ZM476.345 168.958C482.189 172.227 479.588 183.835 478.311 188.883C474.422 188.013 470.198 187.365 465.776 186.963C463.2 183.406 460.531 180.172 457.851 177.373C461.78 173.701 470.557 165.722 476.345 168.958Z" fill="url(#paint24_linear_64_17)"/>
<path fill-rule="evenodd" clip-rule="evenodd" d="M82.4531 66.4531C81.6253 66.4505 80.8007 66.5555 80 66.7656V66.875H80.1188C80.6922 67.7407 81.3316 68.5608 82.0312 69.3281C82.5125 70.2844 82.9312 71.2375 83.4094 72.1938C83.4687 72.1344 83.5281 72.0719 83.5281 72.0719C83.9721 71.7195 84.3195 71.2604 84.5381 70.7375C84.7567 70.2145 84.8392 69.6447 84.7781 69.0813C84.5164 68.6777 84.2765 68.2604 84.0594 67.8313C83.7 67.2344 82.9219 66.9344 82.4437 66.4563" fill="#5D87A1"/>
<path fill-rule="evenodd" clip-rule="evenodd" d="M141.812 118.603C137.871 118.326 133.915 118.897 130.212 120.278C129.316 120.637 127.884 120.637 127.759 121.772C128.241 122.25 128.297 123.022 128.719 123.687C129.537 125.073 130.589 126.307 131.828 127.334C133.078 128.291 134.328 129.244 135.656 130.081C137.984 131.522 140.619 132.356 142.887 133.791C144.206 134.628 145.519 135.703 146.837 136.603C147.494 137.081 147.909 137.853 148.747 138.166V137.984C148.501 137.32 148.196 136.679 147.837 136.069C147.241 135.475 146.641 134.934 146.041 134.337C144.288 132.02 142.19 129.984 139.822 128.3C137.906 126.981 133.719 125.175 132.947 122.987L132.825 122.866C134.227 122.667 135.608 122.345 136.953 121.903C138.984 121.366 140.837 121.487 142.928 120.966C143.887 120.725 145.622 120.128 145.622 120.128V119.191C144.553 118.128 143.787 116.706 142.662 115.703C139.602 113.031 136.34 110.599 132.906 108.428C131.072 107.244 128.706 106.481 126.753 105.472C126.047 105.116 124.878 104.941 124.45 104.347C123.479 102.922 122.665 101.395 122.025 99.7937C120.312 96.5437 118.653 92.9406 117.178 89.5031C116.305 87.1994 115.298 84.9487 114.162 82.7625C108.682 73.4452 100.772 65.7931 91.2781 60.625C88.8826 59.4655 86.3357 58.6491 83.7125 58.2C82.2312 58.1375 80.7562 58.0219 79.2781 57.9656C78.3239 57.3405 77.4163 56.647 76.5625 55.8906C73.1812 53.75 64.4937 49.15 62.0062 55.2406C60.4125 59.0875 64.375 62.8687 65.7343 64.8219C66.8806 66.199 67.8905 67.6841 68.75 69.2562C69.1656 70.2625 69.2843 71.3281 69.6875 72.3812C70.5549 75.0847 71.5849 77.7333 72.7718 80.3125C73.4067 81.5873 74.1379 82.8117 74.9593 83.975C75.4375 84.6281 76.2625 84.9125 76.4406 85.9906C75.7852 87.3993 75.3268 88.8914 75.0781 90.425C74.0451 93.6872 73.6649 97.1209 73.9593 100.53C74.2537 103.939 75.2168 107.257 76.7937 110.294C77.7312 111.772 79.9875 115.025 83.0031 113.781C85.6625 112.719 85.0718 109.347 85.8406 106.394C86.0156 105.678 85.9 105.209 86.2531 104.737V105.312C86.2531 105.312 87.7625 108.628 88.5125 110.312C90.5521 113.403 93.0859 116.138 96.0125 118.406C97.1701 119.417 98.1027 120.659 98.75 122.053V123.125H100.084C100.057 122.642 99.9226 122.17 99.6919 121.745C99.4613 121.319 99.1397 120.95 98.75 120.662C97.6557 119.536 96.6535 118.324 95.7531 117.037C93.307 113.554 91.1498 109.876 89.3031 106.041C88.3656 104.166 87.575 102.109 86.825 100.237C86.4812 99.5156 86.4812 98.425 85.9031 98.05C84.8356 99.313 83.9093 100.689 83.1406 102.153C82.2074 105.113 81.6643 108.181 81.525 111.281C81.2968 111.344 81.4093 111.281 81.2968 111.4C79.4562 110.916 78.8218 108.925 78.1281 107.237C76.3359 102.033 76.1551 96.4089 77.6093 91.1C78.0093 89.8344 79.7437 85.8469 79.05 84.6375C78.7031 83.4844 77.55 82.825 76.9187 81.9156C76.1128 80.6922 75.4194 79.3984 74.8468 78.05C73.475 74.6875 72.7812 70.9375 71.2875 67.55C70.4606 65.9208 69.4978 64.3643 68.4093 62.8969C67.2053 61.431 66.1433 59.8542 65.2375 58.1875C64.95 57.5219 64.5468 56.4344 65.0062 55.7094C65.0372 55.508 65.133 55.3222 65.279 55.1801C65.4251 55.038 65.6134 54.9473 65.8156 54.9219C66.5593 54.2594 68.6937 55.1031 69.4406 55.4656C71.4479 56.2559 73.36 57.2695 75.1406 58.4875C75.9468 59.0937 77.8468 60.6281 77.8468 60.6281H78.4093C80.3218 61.0437 82.4718 60.7437 84.2718 61.2844C87.3025 62.2947 90.1948 63.6804 92.8812 65.4094C100.799 70.4567 107.236 77.5146 111.534 85.8625C112.253 87.2344 112.556 88.4937 113.212 89.925C114.462 92.8625 116.025 95.8625 117.275 98.7187C118.378 101.545 119.804 104.233 121.525 106.731C122.419 107.981 126.009 108.644 127.625 109.3C129.028 109.785 130.405 110.343 131.75 110.972C133.784 112.222 135.812 113.662 137.728 115.034C138.681 115.753 141.672 117.247 141.853 118.444" fill="url(#paint25_linear_64_17)"/>
<g clip-path="url(#clip3_64_17)">
<path d="M506.216 472.766C505.844 472.963 505.875 473.025 506.231 472.844C506.347 472.797 506.444 472.731 506.528 472.653C506.528 472.588 506.528 472.588 506.216 472.766ZM506.966 472.359C506.787 472.506 506.787 472.506 507 472.409C507.113 472.344 507.213 472.281 507.213 472.263C507.213 472.178 507.162 472.197 506.966 472.359ZM507.453 472.066C507.275 472.213 507.275 472.213 507.488 472.116C507.603 472.05 507.7 471.981 507.7 471.966C507.7 471.888 507.65 471.903 507.453 472.066ZM507.947 471.775C507.769 471.922 507.769 471.922 507.975 471.822C508.091 471.759 508.188 471.694 508.188 471.675C508.188 471.597 508.137 471.613 507.947 471.775ZM508.613 471.334C508.272 471.563 508.153 471.709 508.466 471.547C508.675 471.419 509.031 471.138 508.969 471.138C508.834 471.188 508.722 471.272 508.609 471.334H508.613ZM478.728 379.034C478.5 379.05 477.816 379.113 477.216 379.163C463.003 380.45 449.706 388.1 441.278 399.884C436.619 406.344 433.594 413.847 432.453 421.725C432.05 424.475 432 425.288 432 429.016C432 432.741 432.05 433.541 432.453 436.291C435.175 455.075 448.538 470.844 466.65 476.688C469.909 477.728 473.325 478.447 477.216 478.888C478.728 479.05 485.269 479.05 486.781 478.888C493.506 478.138 499.184 476.478 504.803 473.613C505.666 473.175 505.828 473.059 505.713 472.963C502.963 469.334 500.262 465.703 497.559 462.041L489.569 451.25L479.559 436.422C476.222 431.459 472.872 426.509 469.469 421.597C469.434 421.597 469.391 428.188 469.372 436.225C469.337 450.303 469.337 450.875 469.159 451.2C468.981 451.591 468.688 451.916 468.297 452.097C467.987 452.244 467.709 452.275 466.231 452.275H464.541L464.1 452C463.825 451.822 463.597 451.575 463.45 451.284L463.238 450.844L463.253 431.247L463.288 411.65L463.597 411.259C463.794 411.019 464.038 410.822 464.312 410.675C464.722 410.478 464.884 410.447 466.575 410.447C468.559 410.447 468.888 410.525 469.409 411.097C473.459 417.134 477.497 423.188 481.469 429.259C487.966 439.109 496.834 452.55 501.194 459.144L509.122 471.141L509.513 470.881C513.322 468.341 516.787 465.316 519.778 461.866C526.078 454.653 530.166 445.781 531.55 436.313C531.953 433.563 532.003 432.747 532.003 429.022C532.003 425.294 531.953 424.497 531.55 421.747C528.828 402.963 515.466 387.194 497.353 381.347C493.966 380.275 490.481 379.544 486.953 379.169C486.006 379.072 479.544 378.956 478.731 379.041L478.728 379.034ZM499.188 409.275C499.659 409.5 500.016 409.925 500.178 410.413C500.262 410.675 500.278 416.109 500.262 428.35L500.228 445.925L497.137 441.175L494.028 436.422V423.663C494.028 415.391 494.062 410.753 494.106 410.525C494.253 410.003 494.609 409.566 495.084 409.291C495.472 409.094 495.622 409.078 497.169 409.078C498.616 409.078 498.863 409.094 499.188 409.275Z" fill="url(#paint26_linear_64_17)"/>
</g>
<path d="M362.125 76.875L362.656 76.1344L387.719 28.5906L387.772 28.0875L376.725 7.3375C376.523 6.95805 376.206 6.6518 375.82 6.46207C375.435 6.27235 374.999 6.20875 374.575 6.28028C374.151 6.3518 373.76 6.55484 373.458 6.86065C373.156 7.16647 372.957 7.55958 372.891 7.98437L362.125 76.875Z" fill="#FFC24A"/>
<path d="M362.438 76.3125L362.837 75.5312L387.641 28.4813L376.622 7.65C376.44 7.28773 376.146 6.99408 375.783 6.81306C375.421 6.63204 375.009 6.57338 374.61 6.64588C374.212 6.71838 373.847 6.91814 373.572 7.21521C373.296 7.51229 373.124 7.8907 373.081 8.29375L362.438 76.3125Z" fill="url(#paint27_linear_64_17)"/>
<path d="M395.825 43.7812L404.05 35.3438L395.822 19.6531C395.641 19.3154 395.372 19.0332 395.043 18.8364C394.714 18.6396 394.338 18.5357 393.955 18.5357C393.572 18.5357 393.196 18.6396 392.867 18.8364C392.538 19.0332 392.269 19.3154 392.088 19.6531L387.691 28.0344V28.75L395.825 43.7812Z" fill="#F4BD62"/>
<path d="M395.678 43.4375L403.675 35.25L395.678 20C395.547 19.6699 395.324 19.3847 395.034 19.1788C394.745 18.9729 394.402 18.8551 394.048 18.8396C393.693 18.824 393.341 18.9115 393.035 19.0913C392.729 19.2712 392.481 19.5357 392.322 19.8531L387.903 28.3812L387.772 28.8156L395.678 43.4375Z" fill="url(#paint28_linear_64_17)"/>
<path d="M362.131 76.8781L362.372 76.6344L363.244 76.2812L395.306 44.3375L395.712 43.2313L387.716 27.9875L362.131 76.8781Z" fill="url(#paint29_linear_64_17)"/>
<path d="M396.85 92.9875L425.875 76.8031L417.581 25.7688C417.522 25.409 417.364 25.0726 417.126 24.7964C416.888 24.5203 416.579 24.3151 416.231 24.2033C415.884 24.0916 415.513 24.0777 415.159 24.1631C414.804 24.2485 414.48 24.43 414.222 24.6875L362.125 76.875L390.978 92.9844C391.875 93.4849 392.885 93.7477 393.913 93.7477C394.94 93.7477 395.95 93.4849 396.847 92.9844" fill="url(#paint30_linear_64_17)"/>
<path d="M425.609 76.6688L417.384 26.0188C417.37 25.6746 417.254 25.3426 417.05 25.0646C416.847 24.7866 416.566 24.5752 416.242 24.4571C415.919 24.339 415.567 24.3195 415.233 24.4011C414.898 24.4827 414.595 24.6618 414.363 24.9156L362.438 76.7781L390.972 92.7156C391.862 93.2121 392.864 93.4727 393.883 93.4727C394.902 93.4727 395.904 93.2121 396.794 92.7156L425.609 76.6688Z" fill="url(#paint31_linear_64_17)"/>
<path d="M396.85 92.5C395.953 93.0006 394.943 93.2633 393.916 93.2633C392.888 93.2633 391.878 93.0006 390.981 92.5L362.362 76.6313L362.125 76.875L390.978 92.9844C391.875 93.4849 392.885 93.7477 393.913 93.7477C394.94 93.7477 395.95 93.4849 396.847 92.9844L425.875 76.8031L425.803 76.3656L396.85 92.5Z" fill="url(#paint32_linear_64_17)"/>
<path d="M160.664 299.184C158.446 297.936 155.554 297.942 153.334 299.184C142.215 305.32 131.096 311.458 119.975 317.591C117.812 318.729 116.352 321.053 116.375 323.465V360.54C116.36 362.999 117.894 365.345 120.114 366.468C123.308 368.168 126.412 370.039 129.664 371.626C133.42 373.472 138.12 373.88 141.922 371.955C145.009 370.359 146.38 366.811 146.376 363.55C146.401 351.314 146.38 339.078 146.386 326.843C146.459 326.299 146.051 325.718 145.457 325.731C144.037 325.708 142.614 325.718 141.193 325.727C140.656 325.676 140.132 326.122 140.172 326.662C140.153 338.819 140.176 350.979 140.161 363.138C140.192 364.82 139.056 366.436 137.435 367.004C133.691 368.317 123.006 361.379 123.006 361.379C122.614 361.197 122.365 360.772 122.403 360.349C122.403 348.118 122.405 335.885 122.403 323.655C122.35 323.162 122.653 322.718 123.106 322.517C134.189 316.417 145.265 310.302 156.347 304.198C156.732 303.941 157.269 303.942 157.653 304.2C168.735 310.302 179.813 316.411 190.897 322.512C191.352 322.713 191.643 323.164 191.597 323.655C191.595 335.885 191.6 348.118 191.593 360.348C191.626 360.781 191.402 361.2 190.998 361.39C180.019 367.457 168.915 373.328 158.036 379.571C157.561 379.843 157.023 380.152 156.492 379.852C153.631 378.269 150.804 376.625 147.953 375.028C147.643 374.834 147.248 374.751 146.925 374.968C145.646 375.641 144.444 376.187 142.976 376.768C140.914 377.584 141.243 377.918 143.103 379.002C146.437 380.889 149.778 382.768 153.112 384.658C155.308 386.028 158.257 386.125 160.523 384.859C171.644 378.731 182.761 372.595 193.884 366.467C196.098 365.338 197.64 363.001 197.625 360.54V323.465C197.646 321.102 196.242 318.82 194.144 317.664C182.986 311.498 171.823 305.346 160.664 299.184Z" fill="url(#paint33_linear_64_17)"/>
<path d="M177.443 327.019C173.079 324.684 167.886 324.56 163.036 324.865C159.532 325.212 155.847 326.178 153.294 328.69C150.675 331.215 150.105 335.293 151.349 338.589C152.24 340.918 154.484 342.433 156.804 343.234C159.792 344.289 162.931 344.616 166.071 344.942C168.934 345.239 171.799 345.537 174.552 346.388C175.676 346.761 176.985 347.331 177.33 348.554C177.648 350.003 177.299 351.687 176.123 352.693C172.387 355.651 161.993 355.198 158.302 352.87C156.809 351.878 156.166 350.123 155.905 348.45C155.876 347.929 155.456 347.451 154.89 347.491C153.473 347.474 152.056 347.478 150.638 347.489C150.144 347.447 149.63 347.799 149.603 348.304C149.312 355.965 156.348 359.305 162.95 360.041C166.721 360.4 170.576 360.379 174.29 359.57C177.082 358.934 179.881 357.764 181.803 355.613C184.173 353 184.639 349.109 183.576 345.854C182.763 343.425 180.441 341.867 178.068 341.065C174.839 339.958 171.014 339.363 168.09 339.085C163.84 338.68 158.79 338.845 157.588 336.053C157.108 334.591 157.516 332.775 158.86 331.876C162.415 329.464 169.651 329.784 173.333 331.586C175.023 332.433 176.003 334.171 176.408 335.927C176.483 336.442 176.829 336.98 177.426 336.958C178.834 336.986 180.241 336.965 181.648 336.967C182.132 337.001 182.661 336.728 182.756 336.233C182.696 332.564 180.823 328.809 177.443 327.019Z" fill="url(#paint34_linear_64_17)"/>
<g clip-path="url(#clip4_64_17)">
<path d="M595.711 188.951L593.793 192.658C593.215 193.775 592.145 194.463 590.987 194.463H576.293C575.135 194.463 574.066 193.775 573.488 192.658L571.57 188.951H595.711ZM601.081 178.573L597.699 185.109H569.582L566.2 178.573H601.081ZM597.823 168.424L601.086 174.731H566.194L569.458 168.424H597.823ZM590.987 158.83C592.145 158.83 593.215 159.518 593.793 160.635L595.835 164.582H571.445L573.488 160.635C574.066 159.518 575.135 158.83 576.293 158.83H590.987Z" fill="#00435B"/>
<path d="M554.907 157.11C553.28 148.324 552.93 141.586 553.982 136.693C554.608 133.783 555.752 131.409 557.492 129.697C559.328 127.888 561.651 127.001 564.26 127.001C568.564 127.001 573.089 129.186 577.924 133.336C579.896 135.029 581.943 137.069 584.069 139.458C584.238 139.216 584.43 138.987 584.643 138.776C590.653 132.814 595.713 129.111 600.041 127.682C602.615 126.833 605.031 126.752 607.231 127.576C609.553 128.446 611.404 130.245 612.71 132.764C614.864 136.92 615.433 142.383 614.629 149.127C614.302 151.876 613.742 154.871 612.951 158.116C613.249 158.156 613.549 158.229 613.845 158.339C621.47 161.151 626.87 164.176 630.139 167.633C632.085 169.69 633.355 171.979 633.814 174.514C634.299 177.189 633.826 179.872 632.522 182.389C630.371 186.54 626.417 189.814 620.783 192.407C618.521 193.448 615.961 194.391 613.102 195.239C613.232 195.567 613.333 195.916 613.401 196.281C615.029 205.066 615.378 211.804 614.326 216.697C613.7 219.607 612.556 221.981 610.817 223.694C608.98 225.502 606.658 226.389 604.049 226.389C599.745 226.389 595.22 224.205 590.384 220.054C588.391 218.344 586.322 216.278 584.171 213.856C583.95 214.241 583.678 214.599 583.357 214.918C577.347 220.879 572.287 224.583 567.959 226.011C565.385 226.86 562.969 226.941 560.769 226.117C558.447 225.247 556.596 223.449 555.29 220.93C553.136 216.773 552.567 211.311 553.371 204.566C553.71 201.718 554.299 198.606 555.136 195.225C554.808 195.188 554.48 195.111 554.155 194.991C546.53 192.179 541.13 189.154 537.861 185.697C535.915 183.64 534.645 181.351 534.186 178.816C533.701 176.141 534.174 173.458 535.478 170.941C537.629 166.79 541.583 163.516 547.217 160.923C549.547 159.851 552.191 158.882 555.155 158.015C555.049 157.727 554.966 157.425 554.907 157.11Z" fill="#002B3B"/>
<path d="M608.081 197.145C608.839 196.995 609.566 197.536 609.735 198.366L609.744 198.415L609.825 198.882C612.446 214.22 610.6 221.889 604.286 221.889C598.109 221.889 590.245 215.345 580.695 202.257C580.484 201.968 580.37 201.606 580.373 201.234C580.38 200.366 581.006 199.666 581.78 199.647L581.825 199.646L582.328 199.65C586.346 199.675 590.253 199.519 594.048 199.182C598.527 198.786 603.205 198.106 608.081 197.145ZM564.721 185.551L564.745 185.596L564.998 186.086C567.02 190 569.127 193.714 571.318 197.228C573.899 201.368 576.801 205.558 580.025 209.8C580.524 210.456 580.467 211.43 579.904 212.009L579.868 212.046L579.543 212.357C568.877 222.529 561.944 224.56 558.745 218.449C555.614 212.467 556.749 201.591 562.151 185.82C562.27 185.473 562.493 185.183 562.782 184.999C563.459 184.57 564.316 184.818 564.721 185.551ZM613.494 162.919L613.537 162.935L613.939 163.089C627.105 168.187 632.107 173.789 628.945 179.895C625.853 185.868 616.863 190.216 601.976 192.94C601.644 193.001 601.303 192.931 601.013 192.741C600.328 192.292 600.099 191.311 600.502 190.548C602.634 186.511 604.555 182.495 606.263 178.498C608.201 173.965 610.019 169.1 611.718 163.902C611.976 163.114 612.733 162.686 613.45 162.905L613.494 162.919ZM566.987 160.352C567.672 160.8 567.901 161.782 567.498 162.544C565.366 166.581 563.445 170.598 561.737 174.595C559.799 179.128 557.981 183.993 556.282 189.191C556.019 189.995 555.236 190.424 554.507 190.174L554.463 190.158L554.061 190.004C540.895 184.906 535.893 179.304 539.055 173.198C542.147 167.225 551.137 162.877 566.024 160.152C566.356 160.092 566.697 160.162 566.987 160.352ZM609.255 135.245C612.386 141.226 611.251 152.103 605.849 167.874C605.73 168.22 605.507 168.51 605.218 168.694C604.541 169.124 603.684 168.876 603.279 168.143L603.255 168.097L603.002 167.607C600.98 163.694 598.873 159.98 596.682 156.465C594.101 152.326 591.199 148.135 587.975 143.893C587.476 143.237 587.533 142.263 588.096 141.684L588.132 141.648L588.457 141.337C599.123 131.164 606.056 129.134 609.255 135.245ZM564.253 131.604C570.431 131.604 578.294 138.148 587.844 151.236C588.055 151.525 588.169 151.887 588.166 152.259C588.159 153.127 587.534 153.828 586.76 153.847L586.715 153.847L586.212 153.843C582.193 153.819 578.287 153.975 574.492 154.311C570.012 154.708 565.334 155.387 560.459 156.349C559.7 156.498 558.974 155.957 558.805 155.127L558.795 155.078L558.715 154.611C556.093 139.273 557.94 131.604 564.253 131.604Z" fill="url(#paint35_linear_64_17)"/>
<path d="M577.474 159.03H589.809C591.613 159.03 593.279 160.104 594.177 161.845L600.37 173.856C601.261 175.584 601.261 177.709 600.37 179.437L594.177 191.448C593.279 193.189 591.613 194.263 589.809 194.263H577.474C575.671 194.263 574.005 193.189 573.107 191.448L566.913 179.437C566.023 177.709 566.023 175.584 566.913 173.856L573.107 161.845C574.005 160.104 575.671 159.03 577.474 159.03ZM587.929 162.655C589.734 162.655 591.401 163.73 592.298 165.473L596.617 173.859C597.506 175.586 597.506 177.707 596.617 179.434L592.298 187.82C591.401 189.563 589.734 190.638 587.929 190.638H579.354C577.55 190.638 575.883 189.563 574.985 187.82L570.667 179.434C569.777 177.707 569.777 175.586 570.667 173.859L574.985 165.473C575.883 163.73 577.55 162.655 579.354 162.655H587.929ZM585.903 166.62H581.381C579.578 166.62 577.912 167.693 577.014 169.433L574.732 173.854C573.839 175.583 573.839 177.71 574.732 179.439L577.014 183.86C577.912 185.6 579.578 186.673 581.381 186.673H585.903C587.706 186.673 589.371 185.6 590.269 183.86L592.551 179.439C593.444 177.71 593.444 175.583 592.551 173.854L590.269 169.433C589.371 167.693 587.706 166.62 585.903 166.62ZM583.952 170.416C585.753 170.416 587.418 171.487 588.316 173.225L588.64 173.85C589.535 175.581 589.535 177.712 588.64 179.443L588.316 180.068C587.418 181.806 585.753 182.877 583.952 182.877H583.332C581.53 182.877 579.866 181.806 578.967 180.068L578.643 179.443C577.748 177.712 577.748 175.581 578.643 173.85L578.967 173.225C579.866 171.487 581.53 170.416 583.332 170.416H583.952ZM583.642 174.154C582.841 174.154 582.101 174.629 581.701 175.4C581.3 176.171 581.3 177.122 581.701 177.893C582.101 178.664 582.841 179.139 583.641 179.139C584.443 179.139 585.182 178.664 585.582 177.893C585.983 177.122 585.983 176.171 585.582 175.4C585.182 174.629 584.443 174.154 583.642 174.154ZM565.475 176.647H569.506H565.475Z" fill="url(#paint36_linear_64_17)"/>
</g>
<g clip-path="url(#clip5_64_17)">
<path d="M549.462 251.001C549.706 250.986 549.937 251.11 550.058 251.322C550.179 251.534 550.169 251.796 550.032 251.999L525.386 285.477C525.205 285.681 524.946 285.798 524.674 285.798C524.401 285.798 524.142 285.681 523.961 285.477L515.271 275.79C515.059 275.569 514.758 275.457 514.453 275.485C514.149 275.513 513.873 275.677 513.704 275.932L508.433 282.628C508.266 283.005 508.321 283.443 508.575 283.768L524.246 300.008C524.427 300.212 524.686 300.329 524.959 300.329C525.231 300.329 525.49 300.212 525.671 300.008L556.443 265.39C556.624 265.195 556.906 265.128 557.156 265.222C557.405 265.316 557.574 265.551 557.582 265.817V350.013C557.594 350.205 557.523 350.393 557.387 350.529C557.25 350.665 557.062 350.737 556.87 350.725H463.13C462.938 350.737 462.75 350.665 462.613 350.529C462.477 350.393 462.406 350.205 462.418 350.013V251.714C462.406 251.521 462.477 251.333 462.613 251.197C462.75 251.061 462.938 250.989 463.13 251.001H549.462ZM525.243 307.844C521.002 307.769 516.915 309.431 513.929 312.444C510.943 315.457 509.318 319.559 509.43 323.799C509.43 333.629 516.553 339.898 525.813 339.898C530.1 340.004 534.303 338.703 537.78 336.194C538.102 335.901 538.163 335.417 537.923 335.054L535.358 331.208C535.07 330.877 534.579 330.816 534.219 331.065C531.99 332.587 529.366 333.429 526.668 333.487C521.682 333.487 518.548 330.353 517.978 326.649C517.988 326.496 518.11 326.374 518.263 326.364H539.775C540.233 326.333 540.598 325.968 540.629 325.509V324.654C540.629 314.682 534.361 307.844 525.243 307.844ZM504.017 302.43C499.69 298.893 494.214 297.068 488.631 297.302C478.943 297.302 472.96 303 472.96 309.838C472.96 325.367 496.609 320.38 496.609 327.646C496.609 329.925 494.329 332.205 489.485 332.205C484.885 332.243 480.447 330.508 477.091 327.361C476.891 327.174 476.62 327.082 476.347 327.109C476.074 327.137 475.826 327.28 475.667 327.503L471.963 332.632C471.722 332.995 471.783 333.479 472.105 333.772C475.952 337.333 481.365 339.755 488.916 339.755C500.028 339.755 505.441 334.057 505.726 326.649C505.726 311.263 482.077 315.679 482.077 309.126C482.077 306.704 484.214 304.994 487.918 304.994C492.002 304.939 495.978 306.298 499.173 308.841C499.361 308.995 499.603 309.066 499.844 309.04C500.085 309.013 500.306 308.89 500.455 308.698L504.159 303.712C504.313 303.524 504.385 303.283 504.358 303.041C504.331 302.8 504.208 302.58 504.017 302.43ZM525.386 314.112C529.261 313.895 532.606 316.799 532.936 320.665C532.926 320.818 532.804 320.94 532.652 320.95H518.12C517.968 320.94 517.846 320.818 517.835 320.665C518.312 316.874 521.566 314.05 525.386 314.112Z" fill="url(#paint37_linear_64_17)"/>
</g>
<path d="M82.7472 330.939H17.1519V327.24C17.1519 324.754 19.1667 322.739 21.6521 322.739H78.2466C80.7323 322.739 82.7472 324.754 82.7472 327.24V330.939Z" fill="url(#paint38_linear_64_17)"/>
<path d="M78.1773 373.839H21.7214C19.1977 373.839 17.1517 371.793 17.1517 369.269V330.939H82.747V369.269C82.747 371.793 80.7013 373.839 78.1773 373.839Z" fill="url(#paint39_linear_64_17)"/>
<path d="M81.9326 330.195V326.878C81.9326 324.919 80.3451 323.331 78.3866 323.331H21.6133C19.6548 323.331 18.0673 324.919 18.0673 326.878V330.195H81.9326ZM81.9326 369.743V331.683H18.0673V369.743C18.0673 371.702 19.6548 373.289 21.6133 373.289H78.3866C80.3451 373.289 81.9326 371.702 81.9326 369.743ZM21.9462 321.844L22.1671 319.433L21.2292 321.863C21.3564 321.854 21.4835 321.844 21.6133 321.844H21.9462ZM77.6644 317.779L77.9919 321.844H78.3866C78.5979 321.844 78.8047 321.861 79.0091 321.887L77.6644 317.779ZM82.1676 323.566C82.9449 324.452 83.4203 325.609 83.4203 326.878V369.743C83.4203 372.519 81.1621 374.777 78.3866 374.777H21.6133C18.8378 374.777 16.5796 372.519 16.5796 369.743V326.878C16.5796 325.533 17.113 324.312 17.9757 323.408L22.9939 310.401L25.1822 286.496L27.6511 286.722L25.6793 308.26L26.3738 308.528L25.4313 310.972L24.436 321.844H75.5047L72.6707 286.663L75.1417 286.463L76.8133 307.212L76.8143 307.212L82.1676 323.566ZM22.1035 325.756C22.7238 325.756 23.2267 326.259 23.2267 326.88C23.2267 327.5 22.7238 328.003 22.1035 328.003C21.4831 328.003 20.9802 327.5 20.9802 326.88C20.9802 326.259 21.4831 325.756 22.1035 325.756ZM25.9437 325.756C26.5641 325.756 27.0669 326.259 27.0669 326.88C27.0669 327.5 26.5641 328.003 25.9437 328.003C25.3233 328.003 24.8205 327.5 24.8205 326.88C24.8205 326.259 25.3233 325.756 25.9437 325.756ZM29.6629 325.756C30.2833 325.756 30.7861 326.259 30.7861 326.88C30.7861 327.5 30.2833 328.003 29.6629 328.003C29.0425 328.003 28.5397 327.5 28.5397 326.88C28.5397 326.259 29.0425 325.756 29.6629 325.756Z" fill="black"/>
<path d="M25.9847 350.13C26.1777 349.907 26.2793 349.613 26.2793 349.249C26.2793 348.885 26.1777 348.603 25.9847 348.38C25.7816 348.156 25.497 348.051 25.1315 348.051H23.3437V350.459H25.1315C25.497 350.459 25.7816 350.353 25.9847 350.13ZM25.1315 346.606C25.9033 346.606 26.5129 346.841 26.9699 347.322C27.427 347.804 27.6505 348.45 27.6505 349.249C27.6505 350.059 27.427 350.694 26.9803 351.175C26.5231 351.657 25.9137 351.904 25.1315 351.904H23.3437V355.145H21.9623V346.606H25.1315ZM32.5843 351.843V349.352H34.072V354.976H32.5843V354.469C32.1334 354.919 31.5475 355.145 30.8149 355.145C30.1386 355.145 29.5976 354.919 29.1807 354.48C28.7637 354.041 28.5608 353.477 28.5608 352.778V349.352H30.0485V352.463C30.0485 352.857 30.1499 353.184 30.364 353.421C30.5668 353.657 30.8373 353.781 31.1867 353.781C32.1222 353.781 32.5843 353.139 32.5843 351.843ZM39.8758 353.387C40.1687 353.082 40.3152 352.677 40.3152 352.17C40.3152 351.663 40.1687 351.245 39.8758 350.941C39.5713 350.637 39.1995 350.479 38.7374 350.479C38.3204 350.479 37.9486 350.637 37.6217 350.952C37.2948 351.268 37.1371 351.674 37.1371 352.17C37.1371 352.665 37.2948 353.071 37.6217 353.375C37.9486 353.691 38.3204 353.849 38.7374 353.849C39.1995 353.849 39.5713 353.691 39.8758 353.387ZM38.9966 349.183C39.7293 349.183 40.3828 349.465 40.9353 350.028C41.4875 350.603 41.7577 351.313 41.7577 352.17C41.7577 353.026 41.4875 353.736 40.9353 354.3C40.3828 354.863 39.7405 355.145 38.9966 355.145C38.264 355.145 37.6442 354.942 37.1371 354.536V357.659H35.6494V349.352H37.1371V349.803C37.6329 349.386 38.2528 349.183 38.9966 349.183ZM47.1109 353.387C47.4038 353.082 47.5503 352.677 47.5503 352.17C47.5503 351.663 47.4038 351.245 47.1109 350.941C46.8064 350.637 46.4346 350.479 45.9725 350.479C45.5555 350.479 45.1837 350.637 44.8568 350.952C44.5299 351.268 44.372 351.674 44.372 352.17C44.372 352.665 44.5299 353.071 44.8568 353.375C45.1837 353.691 45.5555 353.849 45.9725 353.849C46.4346 353.849 46.8064 353.691 47.1109 353.387ZM46.2315 349.183C46.9641 349.183 47.6179 349.465 48.1704 350.028C48.7224 350.603 48.9929 351.313 48.9929 352.17C48.9929 353.026 48.7224 353.736 48.1704 354.3C47.6179 354.863 46.9756 355.145 46.2315 355.145C45.4991 355.145 44.8793 354.942 44.372 354.536V357.659H42.8845V349.352H44.372V349.803C44.868 349.386 45.4879 349.183 46.2315 349.183ZM51.1901 351.516H53.9063C53.8162 351.166 53.647 350.907 53.4105 350.738C53.1737 350.569 52.8922 350.479 52.5763 350.479C52.2724 350.479 51.9791 350.569 51.7199 350.75C51.4494 350.93 51.269 351.189 51.1901 351.516ZM52.5763 349.183C53.3429 349.183 54.0079 349.453 54.5601 349.983C55.1123 350.524 55.394 351.211 55.428 352.057V352.564H51.1452C51.2241 352.958 51.393 353.274 51.6525 353.511C51.9115 353.747 52.2045 353.871 52.5538 353.871C53.1964 353.871 53.6585 353.623 53.9515 353.128L55.2815 353.409C55.0447 353.984 54.6841 354.413 54.2107 354.706C53.7374 354.999 53.1852 355.145 52.5538 355.145C51.7423 355.145 51.0549 354.863 50.5026 354.311C49.9504 353.759 49.6684 353.038 49.6684 352.17C49.6684 351.302 49.9504 350.581 50.5139 350.017C51.0661 349.465 51.7538 349.183 52.5763 349.183ZM59.5299 353.759C59.8116 353.759 60.1273 353.669 60.4654 353.488L60.8936 354.728C60.3751 355.01 59.8905 355.145 59.4283 355.145C58.7409 355.145 58.1999 354.953 57.8054 354.581C57.4111 354.21 57.2195 353.657 57.2195 352.902V350.569H56.0135V349.352H57.2195V347.65H58.7072V349.352H60.5443V350.569H58.7072V352.789C58.7072 353.432 58.9777 353.759 59.5299 353.759ZM62.6512 351.516H65.3674C65.2773 351.166 65.1081 350.907 64.8716 350.738C64.6348 350.569 64.3533 350.479 64.0374 350.479C63.7335 350.479 63.4402 350.569 63.181 350.75C62.9105 350.93 62.7301 351.189 62.6512 351.516ZM64.0374 349.183C64.804 349.183 65.469 349.453 66.0212 349.983C66.5734 350.524 66.8551 351.211 66.8891 352.057V352.564H62.6063C62.6852 352.958 62.8541 353.274 63.1136 353.511C63.3726 353.747 63.6656 353.871 64.0149 353.871C64.6575 353.871 65.1196 353.623 65.4126 353.128L66.7423 353.409C66.5058 353.984 66.1452 354.413 65.6718 354.706C65.1985 354.999 64.6463 355.145 64.0149 355.145C63.2034 355.145 62.516 354.863 61.9637 354.311C61.4115 353.759 61.1295 353.038 61.1295 352.17C61.1295 351.302 61.4115 350.581 61.975 350.017C62.5272 349.465 63.2149 349.183 64.0374 349.183ZM69.334 351.516H72.0502C71.9601 351.166 71.7909 350.907 71.5544 350.738C71.3176 350.569 71.0361 350.479 70.7202 350.479C70.4163 350.479 70.1231 350.569 69.8638 350.75C69.5933 350.93 69.4129 351.189 69.334 351.516ZM70.7202 349.183C71.4868 349.183 72.1518 349.453 72.704 349.983C73.2562 350.524 73.5379 351.211 73.5719 352.057V352.564H69.2891C69.368 352.958 69.5369 353.274 69.7964 353.511C70.0554 353.747 70.3484 353.871 70.6977 353.871C71.3403 353.871 71.8024 353.623 72.0954 353.128L73.4254 353.409C73.1886 353.984 72.828 354.413 72.3547 354.706C71.8813 354.999 71.3291 355.145 70.6977 355.145C69.8862 355.145 69.1988 354.863 68.6466 354.311C68.0943 353.759 67.8124 353.038 67.8124 352.17C67.8124 351.302 68.0943 350.581 68.6578 350.017C69.21 349.465 69.8977 349.183 70.7202 349.183ZM78.2035 349.273C78.3727 349.273 78.508 349.284 78.5983 349.318L78.5192 350.75H78.1926C76.8513 350.75 76.186 351.55 76.186 353.162V354.976H74.6986V349.352H76.186V350.377C76.6933 349.645 77.3696 349.273 78.2035 349.273Z" fill="black"/>
<path d="M71.6959 309.631L79.7223 305.756V301.882L61.1784 293.025L79.7223 283.476V279.74L71.9727 276.142L50.0155 287.074L27.6891 276.142L20.493 280.017V283.338L37.9296 292.886L20.493 301.743V305.756L27.9659 309.631L50.1077 298.284L71.6959 309.631Z" fill="url(#paint40_linear_64_17)"/>
<path d="M72.7022 308.051V306.382L78.7439 303.251V305.126L72.7022 308.051ZM20.9792 303.207L26.8173 306.559V307.893L20.9792 304.939V303.207ZM50.8834 296.159L70.9666 306.082V308.077L50.8834 297.789V296.159ZM28.5528 306.372L49.1478 296.161V297.788L28.5528 308.208V306.372ZM43.1356 289.687L22.2943 279.625L27.6922 276.882L50.0155 288.454L71.9651 276.887L77.5536 279.749L57.2296 289.977C56.417 290.386 56.4183 291.547 57.2317 291.954L77.346 302.021L72.1324 304.722L50.0155 293.39L27.5074 304.954L22.3666 302.002L43.1471 291.673C43.9703 291.264 43.9635 290.087 43.1356 289.687ZM21.2387 283.034V281.203L40.6763 290.9L38.7113 291.686L21.2387 283.034ZM61.0961 291.793C61.0695 291.777 59.2345 290.911 59.2345 290.911L78.7439 281.093V282.932L61.0961 291.793ZM63.0489 292.755L80.1964 284.145C80.37 284.058 80.4797 283.88 80.4797 283.686V279.612C80.4797 279.419 80.3716 279.242 80.2001 279.154L72.2019 275.058C72.0554 274.983 71.8818 274.983 71.7351 275.057L50.246 285.961C50.1011 286.035 49.9298 286.036 49.7841 285.963L27.9165 275.054C27.7711 274.981 27.5995 274.982 27.4544 275.056L19.5246 279.086C19.352 279.173 19.2434 279.35 19.2434 279.544V283.683C19.2434 283.879 19.3544 284.058 19.5298 284.144L36.7494 292.652L19.6095 301.162C19.4379 301.248 19.3277 301.421 19.3243 301.613L19.2494 305.684C19.2458 305.881 19.3554 306.063 19.5311 306.152L27.7653 310.318C27.9108 310.391 28.0823 310.392 28.228 310.318L49.7836 299.495C49.9293 299.421 50.1014 299.422 50.2471 299.496L71.534 310.319C71.6771 310.392 71.846 310.394 71.9907 310.324L80.1896 306.354C80.3669 306.268 80.4797 306.089 80.4797 305.892V301.639C80.4797 301.442 80.3682 301.264 80.1922 301.177L63.0489 292.755Z" fill="black"/>
<path d="M481.9 79.0281L467.391 71.6469L451.466 79.6563L466.369 87.1969L481.9 79.0281Z" fill="#4DABCF"/>
<path d="M488.553 82.4094L503.766 90.1469L487.981 98.1344L473.056 90.5813L488.553 82.4094Z" fill="#4DABCF"/>
<path d="M508.869 71.7594L524.497 79.6562L510.522 86.7281L495.275 78.9812L508.869 71.7594Z" fill="#4DABCF"/>
<path d="M502.144 68.3563L488.072 61.25L474.156 68.2469L488.653 75.6156L502.144 68.3563Z" fill="#4DABCF"/>
<path d="M491.144 129.403V148.75L508.188 140.181L508.169 120.825L491.144 129.403Z" fill="#4DABCF"/>
<path d="M508.163 114.072L508.144 94.9187L491.144 103.434V122.594L508.163 114.072Z" fill="#4DABCF"/>
<path d="M528.625 110.481V129.903L514.088 137.212L514.078 117.881L528.625 110.481Z" fill="#4DABCF"/>
<path d="M528.625 103.691V84.6594L514.059 91.9563L514.072 111.147L528.625 103.691Z" fill="#4DABCF"/>
<path d="M485.125 103.438L473.644 97.6219V122.763C473.644 122.763 459.603 92.6563 458.312 89.9531C458.038 89.5998 457.684 89.317 457.278 89.1281C454.753 87.8125 447.375 84.0312 447.375 84.0312V128.438L457.581 133.938V110.725C457.581 110.725 471.472 137.622 471.612 137.913C472.328 139.48 473.357 140.884 474.637 142.038C476.622 143.359 485.128 148.516 485.128 148.516L485.125 103.438Z" fill="url(#paint41_linear_64_17)"/>
<path d="M240.469 56.3523V71.7061L267.061 87.06V71.7061L240.469 56.3523ZM187.285 71.7061V87.06L200.58 94.7353V79.383L187.285 71.7061ZM227.172 79.383L213.876 87.06V133.118L227.172 140.795V110.089L240.469 117.766V102.412L227.172 94.7353V79.383Z" fill="url(#paint42_linear_64_17)"/>
<path d="M240.469 56.3523L200.58 79.383V94.7353L227.172 79.383V94.7353L240.469 87.06V56.3523ZM280.358 64.0292L267.061 71.7061V87.06L280.358 79.383V64.0292ZM253.765 94.7353L240.469 102.412V117.766L253.765 110.089V94.7353ZM240.469 117.766L227.172 110.089V140.795L240.469 133.118V117.766Z" fill="url(#paint43_linear_64_17)"/>
<path d="M240.469 41L187.285 71.7061L200.58 79.383L240.469 56.3523L267.061 71.7061L280.358 64.0292L240.469 41ZM240.469 87.06L227.172 94.7353L240.469 102.412L253.765 94.7353L240.469 87.06Z" fill="#F8BF3C"/>
<path fill-rule="evenodd" clip-rule="evenodd" d="M302 366C302 359.097 307.597 353.5 314.5 353.5C321.403 353.5 327 359.097 327 366C327 372.903 321.403 378.5 314.5 378.5C307.597 378.5 302 372.903 302 366Z" fill="url(#paint44_linear_64_17)"/>
<path fill-rule="evenodd" clip-rule="evenodd" d="M277 391C277 384.097 282.596 378.5 289.5 378.5H302V391C302 397.903 296.403 403.5 289.5 403.5C282.596 403.5 277 397.903 277 391Z" fill="url(#paint45_linear_64_17)"/>
<path fill-rule="evenodd" clip-rule="evenodd" d="M302 328.5V353.5H314.5C321.403 353.5 327 347.903 327 341C327 334.096 321.403 328.5 314.5 328.5H302Z" fill="url(#paint46_linear_64_17)"/>
<path fill-rule="evenodd" clip-rule="evenodd" d="M277 341C277 347.903 282.596 353.5 289.5 353.5H302V328.5H289.5C282.596 328.5 277 334.096 277 341Z" fill="url(#paint47_linear_64_17)"/>
<path fill-rule="evenodd" clip-rule="evenodd" d="M277 366C277 372.903 282.596 378.5 289.5 378.5H302V353.5H289.5C282.596 353.5 277 359.097 277 366Z" fill="url(#paint48_linear_64_17)"/>
<defs>
<linearGradient id="paint0_linear_64_17" x1="370" y1="236" x2="370" y2="316" gradientUnits="userSpaceOnUse">
<stop stop-color="#5F21BC"/>
<stop offset="1" stop-color="#230E44"/>
</linearGradient>
<linearGradient id="paint1_linear_64_17" x1="372.807" y1="251.781" x2="372.807" y2="300.219" gradientUnits="userSpaceOnUse">
<stop stop-color="white"/>
<stop offset="1" stop-color="#999999"/>
</linearGradient>
<linearGradient id="paint2_linear_64_17" x1="346" y1="105" x2="346" y2="205" gradientUnits="userSpaceOnUse">
<stop stop-color="#118E45"/>
<stop offset="1" stop-color="#084421"/>
</linearGradient>
<linearGradient id="paint3_linear_64_17" x1="346.392" y1="125.02" x2="346.392" y2="184.981" gradientUnits="userSpaceOnUse">
<stop stop-color="white"/>
<stop offset="1" stop-color="#999999"/>
</linearGradient>
<linearGradient id="paint4_linear_64_17" x1="210" y1="401" x2="210" y2="501" gradientUnits="userSpaceOnUse">
<stop stop-color="#CFBD2D"/>
<stop offset="1" stop-color="#4E4600"/>
</linearGradient>
<linearGradient id="paint5_linear_64_17" x1="200.356" y1="446.91" x2="200.356" y2="493.159" gradientUnits="userSpaceOnUse">
<stop stop-color="#343434"/>
<stop offset="1"/>
</linearGradient>
<linearGradient id="paint6_linear_64_17" x1="235.869" y1="446.372" x2="235.869" y2="493.159" gradientUnits="userSpaceOnUse">
<stop stop-color="#343434"/>
<stop offset="1"/>
</linearGradient>
<linearGradient id="paint7_linear_64_17" x1="227" y1="170.312" x2="227" y2="222.812" gradientUnits="userSpaceOnUse">
<stop stop-color="#44A8B3"/>
<stop offset="1" stop-color="#1D484D"/>
</linearGradient>
<linearGradient id="paint8_linear_64_17" x1="352.043" y1="365" x2="352.043" y2="419.861" gradientUnits="userSpaceOnUse">
<stop stop-color="#BB600C"/>
<stop offset="1" stop-color="#251404"/>
</linearGradient>
<linearGradient id="paint9_linear_64_17" x1="363.574" y1="385.424" x2="363.574" y2="423.366" gradientUnits="userSpaceOnUse">
<stop stop-color="#BB600C"/>
<stop offset="1" stop-color="#251404"/>
</linearGradient>
<linearGradient id="paint10_linear_64_17" x1="381.375" y1="419.077" x2="381.375" y2="438.759" gradientUnits="userSpaceOnUse">
<stop stop-color="#0D79C0"/>
<stop offset="1" stop-color="#0B2739"/>
</linearGradient>
<linearGradient id="paint11_linear_64_17" x1="348.211" y1="420.027" x2="348.211" y2="428.828" gradientUnits="userSpaceOnUse">
<stop stop-color="#0D79C0"/>
<stop offset="1" stop-color="#0B2739"/>
</linearGradient>
<linearGradient id="paint12_linear_64_17" x1="350.312" y1="431.387" x2="350.312" y2="439.485" gradientUnits="userSpaceOnUse">
<stop stop-color="#0D79C0"/>
<stop offset="1" stop-color="#0B2739"/>
</linearGradient>
<linearGradient id="paint13_linear_64_17" x1="350.92" y1="442.336" x2="350.92" y2="450.597" gradientUnits="userSpaceOnUse">
<stop stop-color="#0D79C0"/>
<stop offset="1" stop-color="#0B2739"/>
</linearGradient>
<linearGradient id="paint14_linear_64_17" x1="349.76" y1="449.588" x2="349.76" y2="460.223" gradientUnits="userSpaceOnUse">
<stop stop-color="#0D79C0"/>
<stop offset="1" stop-color="#0B2739"/>
</linearGradient>
<linearGradient id="paint15_linear_64_17" x1="358.761" y1="455.525" x2="358.761" y2="465" gradientUnits="userSpaceOnUse">
<stop stop-color="#0D79C0"/>
<stop offset="1" stop-color="#0B2739"/>
</linearGradient>
<linearGradient id="paint16_linear_64_17" x1="260.003" y1="228.25" x2="260.003" y2="293.065" gradientUnits="userSpaceOnUse">
<stop stop-color="#1863A0"/>
<stop offset="1" stop-color="#0B6AB8" stop-opacity="0.37"/>
</linearGradient>
<linearGradient id="paint17_linear_64_17" x1="281.997" y1="250.935" x2="281.997" y2="315.75" gradientUnits="userSpaceOnUse">
<stop stop-color="#CEAB26"/>
<stop offset="1" stop-color="#F9C600" stop-opacity="0.32"/>
</linearGradient>
<linearGradient id="paint18_linear_64_17" x1="152.5" y1="188" x2="152.5" y2="238" gradientUnits="userSpaceOnUse">
<stop stop-color="#00599C"/>
<stop offset="1" stop-color="#001F36"/>
</linearGradient>
<linearGradient id="paint19_linear_64_17" x1="130" y1="213" x2="130" y2="263" gradientUnits="userSpaceOnUse">
<stop stop-color="#004482"/>
<stop offset="1" stop-color="#000F1C" stop-opacity="0.67"/>
</linearGradient>
<linearGradient id="paint20_linear_64_17" x1="129.428" y1="163" x2="129.428" y2="238" gradientUnits="userSpaceOnUse">
<stop stop-color="#659AD2"/>
<stop offset="1" stop-color="#344F6C"/>
</linearGradient>
<linearGradient id="paint21_linear_64_17" x1="127.99" y1="183.379" x2="127.99" y2="242.621" gradientUnits="userSpaceOnUse">
<stop stop-color="white"/>
<stop offset="1" stop-color="#999999"/>
</linearGradient>
<linearGradient id="paint22_linear_64_17" x1="161.25" y1="208.063" x2="161.25" y2="217.937" gradientUnits="userSpaceOnUse">
<stop stop-color="white"/>
<stop offset="1" stop-color="#999999"/>
</linearGradient>
<linearGradient id="paint23_linear_64_17" x1="455" y1="196.808" x2="455" y2="213.042" gradientUnits="userSpaceOnUse">
<stop stop-color="#1997B8"/>
<stop offset="1" stop-color="#104B5A"/>
</linearGradient>
<linearGradient id="paint24_linear_64_17" x1="455" y1="164.375" x2="455" y2="245.625" gradientUnits="userSpaceOnUse">
<stop stop-color="#1997B8"/>
<stop offset="1" stop-color="#104B5A"/>
</linearGradient>
<linearGradient id="paint25_linear_64_17" x1="105.191" y1="52.2045" x2="105.191" y2="138.166" gradientUnits="userSpaceOnUse">
<stop stop-color="#00758F"/>
<stop offset="1" stop-color="#002229"/>
</linearGradient>
<linearGradient id="paint26_linear_64_17" x1="482.002" y1="379.011" x2="482.002" y2="479.009" gradientUnits="userSpaceOnUse">
<stop stop-color="white"/>
<stop offset="1" stop-color="#8A8888"/>
</linearGradient>
<linearGradient id="paint27_linear_64_17" x1="375.039" y1="6.61564" x2="375" y2="109" gradientUnits="userSpaceOnUse">
<stop stop-color="#FFA712"/>
<stop offset="1" stop-color="#855505"/>
</linearGradient>
<linearGradient id="paint28_linear_64_17" x1="395.723" y1="18.8378" x2="395.723" y2="43.4375" gradientUnits="userSpaceOnUse">
<stop stop-color="#FFA50E"/>
<stop offset="1" stop-color="#996308"/>
</linearGradient>
<linearGradient id="paint29_linear_64_17" x1="378.922" y1="27.9875" x2="378.922" y2="76.8781" gradientUnits="userSpaceOnUse">
<stop stop-color="#F6820C"/>
<stop offset="1" stop-color="#904C07"/>
</linearGradient>
<linearGradient id="paint30_linear_64_17" x1="394" y1="24.1079" x2="394" y2="93.7477" gradientUnits="userSpaceOnUse">
<stop stop-color="#FDE068"/>
<stop offset="1" stop-color="#97863E"/>
</linearGradient>
<linearGradient id="paint31_linear_64_17" x1="394.023" y1="24.3515" x2="394" y2="136.5" gradientUnits="userSpaceOnUse">
<stop stop-color="#F7CF60"/>
<stop offset="0.585605" stop-color="#775D13"/>
</linearGradient>
<linearGradient id="paint32_linear_64_17" x1="394" y1="76.3656" x2="394" y2="93.7477" gradientUnits="userSpaceOnUse">
<stop stop-color="#EEAB37"/>
<stop offset="1" stop-color="#88621F"/>
</linearGradient>
<linearGradient id="paint33_linear_64_17" x1="157" y1="298.25" x2="157" y2="385.75" gradientUnits="userSpaceOnUse">
<stop stop-color="#65A323"/>
<stop offset="1" stop-color="#344F16"/>
</linearGradient>
<linearGradient id="paint34_linear_64_17" x1="166.855" y1="324.744" x2="166.855" y2="360.263" gradientUnits="userSpaceOnUse">
<stop stop-color="#65A323"/>
<stop offset="1" stop-color="#344F16"/>
</linearGradient>
<linearGradient id="paint35_linear_64_17" x1="584" y1="131.604" x2="584" y2="221.889" gradientUnits="userSpaceOnUse">
<stop stop-color="#D42637"/>
<stop offset="1" stop-color="#76111B"/>
</linearGradient>
<linearGradient id="paint36_linear_64_17" x1="583.256" y1="159.03" x2="583.256" y2="194.263" gradientUnits="userSpaceOnUse">
<stop stop-color="#FFD94C"/>
<stop offset="1" stop-color="#99822E"/>
</linearGradient>
<linearGradient id="paint37_linear_64_17" x1="510" y1="251" x2="510" y2="350.726" gradientUnits="userSpaceOnUse">
<stop stop-color="#2CB134"/>
<stop offset="1" stop-color="#134B16"/>
</linearGradient>
<linearGradient id="paint38_linear_64_17" x1="49.9495" y1="322.739" x2="49.9495" y2="330.939" gradientUnits="userSpaceOnUse">
<stop stop-color="#DFDEDF"/>
<stop offset="1" stop-color="#797879"/>
</linearGradient>
<linearGradient id="paint39_linear_64_17" x1="49.9494" y1="330.939" x2="49.9494" y2="373.839" gradientUnits="userSpaceOnUse">
<stop stop-color="white"/>
<stop offset="1" stop-color="#999999"/>
</linearGradient>
<linearGradient id="paint40_linear_64_17" x1="50.1077" y1="276.142" x2="50.1077" y2="309.631" gradientUnits="userSpaceOnUse">
<stop stop-color="#00D8A2"/>
<stop offset="1" stop-color="#007256"/>
</linearGradient>
<linearGradient id="paint41_linear_64_17" x1="466.252" y1="84.0312" x2="466.252" y2="148.516" gradientUnits="userSpaceOnUse">
<stop stop-color="#4D77CF"/>
<stop offset="1" stop-color="#273C69"/>
</linearGradient>
<linearGradient id="paint42_linear_64_17" x1="227.173" y1="56.3523" x2="227.173" y2="140.795" gradientUnits="userSpaceOnUse">
<stop stop-color="#E55B2D"/>
<stop offset="1" stop-color="#7F3219"/>
</linearGradient>
<linearGradient id="paint43_linear_64_17" x1="240.469" y1="56.3523" x2="240.469" y2="140.795" gradientUnits="userSpaceOnUse">
<stop stop-color="#ED8E24"/>
<stop offset="1" stop-color="#875115"/>
</linearGradient>
<linearGradient id="paint44_linear_64_17" x1="314.5" y1="353.5" x2="314.5" y2="378.5" gradientUnits="userSpaceOnUse">
<stop stop-color="#1ABCFE"/>
<stop offset="1" stop-color="#107198"/>
</linearGradient>
<linearGradient id="paint45_linear_64_17" x1="289.5" y1="378.5" x2="289.5" y2="403.5" gradientUnits="userSpaceOnUse">
<stop stop-color="#0ACF83"/>
<stop offset="1" stop-color="#056942"/>
</linearGradient>
<linearGradient id="paint46_linear_64_17" x1="314.5" y1="328.5" x2="314.5" y2="353.5" gradientUnits="userSpaceOnUse">
<stop stop-color="#FF7262"/>
<stop offset="1" stop-color="#99443B"/>
</linearGradient>
<linearGradient id="paint47_linear_64_17" x1="289.5" y1="328.5" x2="289.5" y2="353.5" gradientUnits="userSpaceOnUse">
<stop stop-color="#F24E1E"/>
<stop offset="1" stop-color="#8C2D11"/>
</linearGradient>
<linearGradient id="paint48_linear_64_17" x1="289.5" y1="353.5" x2="289.5" y2="378.5" gradientUnits="userSpaceOnUse">
<stop stop-color="#A259FF"/>
<stop offset="1" stop-color="#613599"/>
</linearGradient>
<clipPath id="clip0_64_17">
<rect width="80" height="80" fill="white" transform="translate(330 236)"/>
</clipPath>
<clipPath id="clip1_64_17">
<rect width="100" height="100" fill="white" transform="translate(296 105)"/>
</clipPath>
<clipPath id="clip2_64_17">
<rect width="100" height="100" fill="white" transform="translate(160 401)"/>
</clipPath>
<clipPath id="clip3_64_17">
<rect width="100" height="100" fill="white" transform="translate(432 379)"/>
</clipPath>
<clipPath id="clip4_64_17">
<rect width="100" height="100" fill="white" transform="translate(534 127)"/>
</clipPath>
<clipPath id="clip5_64_17">
<rect width="100" height="100" fill="white" transform="translate(460 251)"/>
</clipPath>
</defs>
</svg>
