<svg width="100" height="100" viewBox="0 0 100 100" fill="none" xmlns="http://www.w3.org/2000/svg">
<path d="M18.125 76.875L18.6562 76.1344L43.7187 28.5906L43.7719 28.0875L32.725 7.3375C32.5228 6.95805 32.2063 6.6518 31.8205 6.46208C31.4346 6.27235 30.9989 6.20875 30.5749 6.28028C30.1509 6.35181 29.7601 6.55484 29.4579 6.86065C29.1556 7.16647 28.9572 7.55958 28.8906 7.98438L18.125 76.875Z" fill="#FFC24A"/>
<path d="M18.4375 76.3125L18.8375 75.5313L43.6406 28.4813L32.6219 7.65C32.4402 7.28773 32.146 6.99408 31.7834 6.81306C31.4207 6.63204 31.0092 6.57338 30.6105 6.64588C30.2117 6.71838 29.8472 6.91814 29.5715 7.21521C29.2958 7.51229 29.1238 7.8907 29.0812 8.29375L18.4375 76.3125Z" fill="url(#paint0_linear_57_8)"/>
<path d="M51.825 43.7812L60.05 35.3437L51.8219 19.6531C51.6408 19.3154 51.3715 19.0332 51.0427 18.8364C50.7139 18.6396 50.3379 18.5357 49.9547 18.5357C49.5716 18.5357 49.1955 18.6396 48.8667 18.8364C48.5379 19.0332 48.2686 19.3154 48.0875 19.6531L43.6907 28.0344V28.75L51.825 43.7812Z" fill="#F4BD62"/>
<path d="M51.6782 43.4375L59.6751 35.25L51.6782 20C51.5473 19.6699 51.3238 19.3847 51.0344 19.1788C50.7451 18.9729 50.4024 18.8551 50.0477 18.8396C49.6929 18.824 49.3412 18.9115 49.035 19.0913C48.7288 19.2712 48.4812 19.5357 48.322 19.8531L43.9032 28.3812L43.772 28.8156L51.6782 43.4375Z" fill="url(#paint1_linear_57_8)"/>
<path d="M18.1313 76.8781L18.372 76.6344L19.2438 76.2813L51.3063 44.3375L51.7126 43.2313L43.7157 27.9875L18.1313 76.8781Z" fill="url(#paint2_linear_57_8)"/>
<path d="M52.85 92.9875L81.875 76.8031L73.5812 25.7688C73.5218 25.409 73.3644 25.0726 73.1262 24.7964C72.8881 24.5203 72.5785 24.3151 72.2314 24.2033C71.8843 24.0916 71.5131 24.0777 71.1586 24.1631C70.8041 24.2485 70.48 24.43 70.2219 24.6875L18.125 76.875L46.9781 92.9844C47.8751 93.4849 48.8853 93.7477 49.9125 93.7477C50.9397 93.7477 51.9499 93.4849 52.8469 92.9844" fill="url(#paint3_linear_57_8)"/>
<path d="M81.6094 76.6688L73.3844 26.0188C73.3699 25.6746 73.2536 25.3426 73.0503 25.0646C72.8469 24.7866 72.5657 24.5752 72.2422 24.4571C71.9187 24.339 71.5674 24.3195 71.2328 24.4011C70.8982 24.4827 70.5953 24.6618 70.3625 24.9156L18.4375 76.7781L46.9719 92.7156C47.8618 93.2121 48.8638 93.4727 49.8828 93.4727C50.9018 93.4727 51.9039 93.2121 52.7937 92.7156L81.6094 76.6688Z" fill="url(#paint4_linear_57_8)"/>
<path d="M52.85 92.5C51.953 93.0005 50.9428 93.2633 49.9156 93.2633C48.8884 93.2633 47.8783 93.0005 46.9813 92.5L18.3625 76.6312L18.125 76.875L46.9781 92.9844C47.8751 93.4849 48.8853 93.7477 49.9125 93.7477C50.9397 93.7477 51.9499 93.4849 52.8469 92.9844L81.875 76.8031L81.8031 76.3656L52.85 92.5Z" fill="url(#paint5_linear_57_8)"/>
<defs>
<linearGradient id="paint0_linear_57_8" x1="31.0391" y1="6.61564" x2="31" y2="109" gradientUnits="userSpaceOnUse">
<stop stop-color="#FFA712"/>
<stop offset="1" stop-color="#855505"/>
</linearGradient>
<linearGradient id="paint1_linear_57_8" x1="51.7235" y1="18.8378" x2="51.7235" y2="43.4375" gradientUnits="userSpaceOnUse">
<stop stop-color="#FFA50E"/>
<stop offset="1" stop-color="#996308"/>
</linearGradient>
<linearGradient id="paint2_linear_57_8" x1="34.922" y1="27.9875" x2="34.922" y2="76.8781" gradientUnits="userSpaceOnUse">
<stop stop-color="#F6820C"/>
<stop offset="1" stop-color="#904C07"/>
</linearGradient>
<linearGradient id="paint3_linear_57_8" x1="50" y1="24.1079" x2="50" y2="93.7477" gradientUnits="userSpaceOnUse">
<stop stop-color="#FDE068"/>
<stop offset="1" stop-color="#97863E"/>
</linearGradient>
<linearGradient id="paint4_linear_57_8" x1="50.0234" y1="24.3515" x2="50" y2="136.5" gradientUnits="userSpaceOnUse">
<stop stop-color="#F7CF60"/>
<stop offset="0.585605" stop-color="#775D13"/>
</linearGradient>
<linearGradient id="paint5_linear_57_8" x1="50" y1="76.3656" x2="50" y2="93.7477" gradientUnits="userSpaceOnUse">
<stop stop-color="#EEAB37"/>
<stop offset="1" stop-color="#88621F"/>
</linearGradient>
</defs>
</svg>
