<svg width="200" height="200" viewBox="0 0 200 200" fill="none" xmlns="http://www.w3.org/2000/svg">
<path d="M100.311 52.7539C141.486 20.7879 120.354 0 120.354 0C123.499 33.0461 86.3313 40.8489 76.3682 63.5575C69.5701 79.0531 81.0238 92.6206 100.297 109.721C98.5932 105.934 95.9651 102.254 93.3051 98.5281C84.2307 85.8206 74.7782 72.5825 100.311 52.7539Z" fill="url(#paint0_linear_53_7)"/>
<path d="M106.884 116.731C106.884 116.731 119.272 106.737 109.462 95.63C76.2068 57.9491 145.833 40.8489 145.833 40.8489C103.323 61.3281 109.669 73.4838 120.354 88.2513C131.794 104.086 106.884 116.731 106.884 116.731Z" fill="url(#paint1_linear_53_7)"/>
<path d="M143.356 146.535C181.514 127.036 163.872 108.299 151.557 110.823C148.539 111.441 147.193 111.976 147.193 111.976C147.193 111.976 148.314 110.25 150.454 109.502C174.816 101.081 193.551 134.343 142.589 147.517C142.589 147.517 143.18 146.999 143.356 146.535Z" fill="url(#paint2_linear_53_7)"/>
<path d="M63.9562 121.856C40.082 118.721 77.0469 110.087 77.0469 110.087C77.0469 110.087 62.6919 109.135 45.037 117.527C24.1611 127.457 96.6756 131.974 134.212 122.266C138.115 119.645 143.509 117.374 143.509 117.374C143.509 117.374 128.148 120.071 112.851 121.341C94.1325 122.882 74.0369 123.183 63.9562 121.856Z" fill="url(#paint3_linear_53_7)"/>
<path d="M73.04 140.474C59.7265 139.12 68.4438 132.774 68.4438 132.774C33.9936 144.018 87.6113 156.769 135.749 142.926C130.633 141.153 127.379 137.908 127.379 137.908C103.852 142.363 90.2563 142.221 73.04 140.474Z" fill="url(#paint4_linear_53_7)"/>
<path d="M78.8407 160.619C65.5376 159.116 73.3095 154.671 73.3095 154.671C42.0372 163.264 92.3307 181.016 132.146 164.236C125.624 161.742 120.955 158.863 120.955 158.863C103.194 162.168 94.957 162.428 78.8407 160.619Z" fill="url(#paint5_linear_53_7)"/>
<path d="M162.117 170.868C162.117 170.868 167.868 175.528 155.782 179.133C132.801 185.979 60.1308 188.046 39.9434 179.406C32.6865 176.301 46.2952 171.993 50.5759 171.089C55.0404 170.137 57.5916 170.314 57.5916 170.314C49.5212 164.724 5.42806 181.292 35.1944 186.037C116.372 198.983 183.173 180.207 162.117 170.868Z" fill="url(#paint6_linear_53_7)"/>
<path d="M175 181.049C173.668 198.092 117.423 201.677 80.7963 199.371C56.902 197.864 52.1133 194.099 52.0432 194.044C74.9119 197.751 113.468 198.426 144.73 192.641C172.439 187.51 175 181.049 175 181.049Z" fill="url(#paint7_linear_53_7)"/>
<defs>
<linearGradient id="paint0_linear_53_7" x1="100.086" y1="0" x2="100.086" y2="109.721" gradientUnits="userSpaceOnUse">
<stop stop-color="#BB600C"/>
<stop offset="1" stop-color="#251404"/>
</linearGradient>
<linearGradient id="paint1_linear_53_7" x1="123.148" y1="40.8489" x2="123.148" y2="116.731" gradientUnits="userSpaceOnUse">
<stop stop-color="#BB600C"/>
<stop offset="1" stop-color="#251404"/>
</linearGradient>
<linearGradient id="paint2_linear_53_7" x1="158.751" y1="108.154" x2="158.751" y2="147.517" gradientUnits="userSpaceOnUse">
<stop stop-color="#0D79C0"/>
<stop offset="1" stop-color="#0B2739"/>
</linearGradient>
<linearGradient id="paint3_linear_53_7" x1="92.4211" y1="110.054" x2="92.4211" y2="127.656" gradientUnits="userSpaceOnUse">
<stop stop-color="#0D79C0"/>
<stop offset="1" stop-color="#0B2739"/>
</linearGradient>
<linearGradient id="paint4_linear_53_7" x1="96.6234" y1="132.774" x2="96.6234" y2="148.97" gradientUnits="userSpaceOnUse">
<stop stop-color="#0D79C0"/>
<stop offset="1" stop-color="#0B2739"/>
</linearGradient>
<linearGradient id="paint5_linear_53_7" x1="97.8392" y1="154.671" x2="97.8392" y2="171.194" gradientUnits="userSpaceOnUse">
<stop stop-color="#0D79C0"/>
<stop offset="1" stop-color="#0B2739"/>
</linearGradient>
<linearGradient id="paint6_linear_53_7" x1="95.5194" y1="169.176" x2="95.5194" y2="190.446" gradientUnits="userSpaceOnUse">
<stop stop-color="#0D79C0"/>
<stop offset="1" stop-color="#0B2739"/>
</linearGradient>
<linearGradient id="paint7_linear_53_7" x1="113.522" y1="181.049" x2="113.522" y2="200" gradientUnits="userSpaceOnUse">
<stop stop-color="#0D79C0"/>
<stop offset="1" stop-color="#0B2739"/>
</linearGradient>
</defs>
</svg>
