<svg width="100" height="100" viewBox="0 0 100 100" fill="none" xmlns="http://www.w3.org/2000/svg">
<path fill-rule="evenodd" clip-rule="evenodd" d="M27.4531 21.4531C26.6253 21.4505 25.8007 21.5555 25 21.7656V21.875H25.1188C25.6922 22.7407 26.3316 23.5608 27.0312 24.3281C27.5125 25.2844 27.9312 26.2375 28.4094 27.1938C28.4687 27.1344 28.5281 27.0719 28.5281 27.0719C28.9721 26.7195 29.3195 26.2604 29.5381 25.7375C29.7567 25.2145 29.8392 24.6447 29.7781 24.0813C29.5164 23.6777 29.2765 23.2604 29.0594 22.8313C28.7 22.2344 27.9219 21.9344 27.4437 21.4563" fill="#5D87A1"/>
<path fill-rule="evenodd" clip-rule="evenodd" d="M86.8126 73.6031C82.8706 73.3262 78.9152 73.8974 75.2126 75.2781C74.3157 75.6375 72.8845 75.6375 72.7595 76.7719C73.2407 77.25 73.297 78.0219 73.7188 78.6875C74.5373 80.0733 75.5893 81.3071 76.8282 82.3344C78.0782 83.2906 79.3282 84.2437 80.6563 85.0812C82.9845 86.5219 85.6188 87.3563 87.8876 88.7906C89.2063 89.6281 90.5188 90.7031 91.8376 91.6031C92.4938 92.0812 92.9095 92.8531 93.747 93.1656V92.9844C93.5009 92.3203 93.1966 91.6792 92.8376 91.0688C92.2407 90.475 91.6407 89.9344 91.0407 89.3375C89.2878 87.0197 87.1906 84.9836 84.822 83.3C82.9063 81.9813 78.7188 80.175 77.947 77.9875L77.8251 77.8656C79.2268 77.667 80.6082 77.3449 81.9532 76.9031C83.9845 76.3656 85.8376 76.4875 87.9282 75.9656C88.8876 75.725 90.622 75.1281 90.622 75.1281V74.1906C89.5532 73.1281 88.7876 71.7063 87.6626 70.7031C84.6019 68.0314 81.3402 65.5992 77.9063 63.4281C76.072 62.2438 73.7063 61.4812 71.7532 60.4719C71.047 60.1156 69.8782 59.9406 69.4501 59.3469C68.4787 57.9218 67.6656 56.3951 67.0251 54.7938C65.3126 51.5438 63.6532 47.9406 62.1782 44.5031C61.3051 42.1994 60.2982 39.9487 59.1626 37.7625C53.6824 28.4452 45.7722 20.7931 36.2782 15.625C33.8827 14.4655 31.3358 13.6491 28.7126 13.2C27.2313 13.1375 25.7563 13.0219 24.2782 12.9656C23.324 12.3405 22.4164 11.647 21.5626 10.8906C18.1813 8.75 9.49383 4.15 7.00633 10.2406C5.41258 14.0875 9.37508 17.8688 10.7345 19.8219C11.8807 21.199 12.8906 22.6841 13.7501 24.2563C14.1657 25.2625 14.2845 26.3281 14.6876 27.3813C15.555 30.0847 16.585 32.7333 17.772 35.3125C18.4068 36.5873 19.1381 37.8117 19.9595 38.975C20.4376 39.6281 21.2626 39.9125 21.4407 40.9906C20.7853 42.3993 20.3269 43.8914 20.0782 45.425C19.0452 48.6872 18.6651 52.1209 18.9594 55.53C19.2538 58.9392 20.2169 62.2569 21.7938 65.2937C22.7313 66.7719 24.9876 70.025 28.0032 68.7813C30.6626 67.7188 30.072 64.3469 30.8407 61.3937C31.0157 60.6781 30.9001 60.2094 31.2532 59.7375V60.3125C31.2532 60.3125 32.7626 63.6281 33.5126 65.3125C35.5522 68.4031 38.086 71.1375 41.0126 73.4062C42.1702 74.4169 43.1028 75.6593 43.7501 77.0531V78.125H45.0845C45.0567 77.6417 44.9227 77.1705 44.692 76.7449C44.4614 76.3192 44.1398 75.9497 43.7501 75.6625C42.6558 74.5362 41.6537 73.324 40.7532 72.0375C38.3071 68.5538 36.1499 64.8759 34.3032 61.0406C33.3657 59.1656 32.5751 57.1094 31.8251 55.2375C31.4813 54.5156 31.4813 53.425 30.9032 53.05C29.8357 54.313 28.9094 55.6889 28.1407 57.1531C27.2076 60.1126 26.6644 63.1812 26.5251 66.2812C26.297 66.3437 26.4095 66.2812 26.297 66.4C24.4563 65.9156 23.822 63.925 23.1282 62.2375C21.336 57.033 21.1553 51.4089 22.6095 46.1C23.0095 44.8344 24.7438 40.8469 24.0501 39.6375C23.7032 38.4844 22.5501 37.825 21.9188 36.9156C21.113 35.6922 20.4195 34.3984 19.847 33.05C18.4751 29.6875 17.7813 25.9375 16.2876 22.55C15.4607 20.9208 14.4979 19.3643 13.4095 17.8969C12.2054 16.4311 11.1434 14.8542 10.2376 13.1875C9.95008 12.5219 9.54695 11.4344 10.0063 10.7094C10.0373 10.508 10.1331 10.3222 10.2791 10.1801C10.4252 10.038 10.6135 9.94735 10.8157 9.92188C11.5595 9.25938 13.6938 10.1031 14.4407 10.4656C16.4481 11.2559 18.3601 12.2695 20.1407 13.4875C20.947 14.0938 22.847 15.6281 22.847 15.6281H23.4095C25.322 16.0438 27.472 15.7438 29.272 16.2844C32.3027 17.2947 35.1949 18.6804 37.8813 20.4094C45.7991 25.4567 52.2358 32.5146 56.5345 40.8625C57.2532 42.2344 57.5563 43.4938 58.2126 44.925C59.4626 47.8625 61.0251 50.8625 62.2751 53.7188C63.3778 56.5446 64.804 59.2334 66.5251 61.7312C67.4188 62.9812 71.0095 63.6438 72.6251 64.3C74.0281 64.7854 75.405 65.3434 76.7501 65.9719C78.7845 67.2219 80.8126 68.6625 82.7282 70.0344C83.6813 70.7531 86.672 72.2469 86.8532 73.4438" fill="url(#paint0_linear_57_5)"/>
<defs>
<linearGradient id="paint0_linear_57_5" x1="50.1907" y1="7.20453" x2="50.1907" y2="93.1656" gradientUnits="userSpaceOnUse">
<stop stop-color="#00758F"/>
<stop offset="1" stop-color="#002229"/>
</linearGradient>
</defs>
</svg>
