<svg width="100" height="100" viewBox="0 0 100 100" fill="none" xmlns="http://www.w3.org/2000/svg">
<g clip-path="url(#clip0_57_22)">
<path d="M74.2156 93.7656C73.8438 93.9625 73.875 94.025 74.2312 93.8437C74.3469 93.7969 74.4438 93.7312 74.5281 93.6531C74.5281 93.5875 74.5281 93.5875 74.2156 93.7656ZM74.9656 93.3594C74.7875 93.5062 74.7875 93.5062 75 93.4094C75.1125 93.3437 75.2125 93.2812 75.2125 93.2625C75.2125 93.1781 75.1625 93.1969 74.9656 93.3594ZM75.4531 93.0656C75.275 93.2125 75.275 93.2125 75.4875 93.1156C75.6031 93.05 75.7 92.9812 75.7 92.9656C75.7 92.8875 75.65 92.9031 75.4531 93.0656ZM75.9469 92.775C75.7687 92.9219 75.7688 92.9219 75.975 92.8219C76.0906 92.7594 76.1875 92.6937 76.1875 92.675C76.1875 92.5969 76.1375 92.6125 75.9469 92.775ZM76.6125 92.3344C76.2719 92.5625 76.1531 92.7094 76.4656 92.5469C76.675 92.4187 77.0312 92.1375 76.9687 92.1375C76.8344 92.1875 76.7219 92.2719 76.6094 92.3344H76.6125ZM46.7281 0.0343748C46.5 0.0499998 45.8156 0.1125 45.2156 0.1625C31.0031 1.45 17.7063 9.1 9.27813 20.8844C4.61875 27.3437 1.59375 34.8469 0.453125 42.725C0.05 45.475 0 46.2875 0 50.0156C0 53.7406 0.05 54.5406 0.453125 57.2906C3.175 76.075 16.5375 91.8437 34.65 97.6875C37.9094 98.7281 41.325 99.4469 45.2156 99.8875C46.7281 100.05 53.2688 100.05 54.7813 99.8875C61.5063 99.1375 67.1844 97.4781 72.8031 94.6125C73.6656 94.175 73.8281 94.0594 73.7125 93.9625C70.9625 90.3344 68.2625 86.7031 65.5594 83.0406L57.5688 72.25L47.5594 57.4219C44.2219 52.4594 40.8719 47.5094 37.4687 42.5969C37.4344 42.5969 37.3906 49.1875 37.3719 57.225C37.3375 71.3031 37.3375 71.875 37.1594 72.2C36.9812 72.5906 36.6875 72.9156 36.2969 73.0969C35.9875 73.2437 35.7094 73.275 34.2313 73.275H32.5406L32.1 73C31.825 72.8219 31.5969 72.575 31.45 72.2844L31.2375 71.8437L31.2531 52.2469L31.2875 32.65L31.5969 32.2594C31.7938 32.0188 32.0375 31.8219 32.3125 31.675C32.7219 31.4781 32.8844 31.4469 34.575 31.4469C36.5594 31.4469 36.8875 31.525 37.4094 32.0969C41.4594 38.1344 45.4969 44.1875 49.4687 50.2594C55.9656 60.1094 64.8344 73.55 69.1938 80.1437L77.1219 92.1406L77.5125 91.8812C81.3219 89.3406 84.7875 86.3156 87.7781 82.8656C94.0781 75.6531 98.1656 66.7812 99.55 57.3125C99.9531 54.5625 100.003 53.7469 100.003 50.0219C100.003 46.2937 99.9531 45.4969 99.55 42.7469C96.8281 23.9625 83.4656 8.19375 65.3531 2.34687C61.9656 1.275 58.4812 0.54375 54.9531 0.16875C54.0062 0.0718748 47.5438 -0.0437502 46.7313 0.0406248L46.7281 0.0343748ZM67.1875 30.275C67.6594 30.5 68.0156 30.925 68.1781 31.4125C68.2625 31.675 68.2781 37.1094 68.2625 49.35L68.2281 66.925L65.1375 62.175L62.0281 57.4219V44.6625C62.0281 36.3906 62.0625 31.7531 62.1063 31.525C62.2531 31.0031 62.6094 30.5656 63.0844 30.2906C63.4719 30.0938 63.6219 30.0781 65.1688 30.0781C66.6156 30.0781 66.8625 30.0937 67.1875 30.275Z" fill="url(#paint0_linear_57_22)"/>
</g>
<defs>
<linearGradient id="paint0_linear_57_22" x1="50.0016" y1="0.0114059" x2="50.0016" y2="100.009" gradientUnits="userSpaceOnUse">
<stop stop-color="white"/>
<stop offset="1" stop-color="#8A8888"/>
</linearGradient>
<clipPath id="clip0_57_22">
<rect width="100" height="100" fill="white"/>
</clipPath>
</defs>
</svg>
