<svg width="100" height="100" viewBox="0 0 100 100" fill="none" xmlns="http://www.w3.org/2000/svg">
<path d="M43.9 24.0281L29.3906 16.6469L13.4656 24.6563L28.3687 32.1969L43.9 24.0281Z" fill="url(#paint0_linear_59_53)"/>
<path d="M50.553 27.4094L65.7655 35.1469L49.9812 43.1344L35.0562 35.5812L50.553 27.4094Z" fill="url(#paint1_linear_59_53)"/>
<path d="M70.8687 16.7594L86.4968 24.6562L72.5218 31.7281L57.2749 23.9812L70.8687 16.7594Z" fill="url(#paint2_linear_59_53)"/>
<path d="M64.1437 13.3563L50.0719 6.25L36.1562 13.2469L50.6531 20.6156L64.1437 13.3563Z" fill="url(#paint3_linear_59_53)"/>
<path d="M53.1438 74.4031V93.75L70.1875 85.1812L70.1688 65.825L53.1438 74.4031Z" fill="url(#paint4_linear_59_53)"/>
<path d="M70.1625 59.0719L70.1438 39.9188L53.1438 48.4344V67.5938L70.1625 59.0719Z" fill="url(#paint5_linear_59_53)"/>
<path d="M90.625 55.4812V74.9031L76.0875 82.2125L76.0781 62.8812L90.625 55.4812Z" fill="url(#paint6_linear_59_53)"/>
<path d="M90.6249 48.6906V29.6594L76.0593 36.9562L76.0718 56.1469L90.6249 48.6906Z" fill="url(#paint7_linear_59_53)"/>
<path d="M47.125 48.4375L35.6437 42.6219V67.7625C35.6437 67.7625 21.6031 37.6563 20.3125 34.9531C20.0382 34.5998 19.6836 34.317 19.2781 34.1281C16.7531 32.8125 9.375 29.0312 9.375 29.0312V73.4375L19.5812 78.9375V55.725C19.5812 55.725 33.4719 82.6219 33.6125 82.9125C34.3277 84.4801 35.3573 85.8842 36.6375 87.0375C38.6219 88.3594 47.1281 93.5156 47.1281 93.5156L47.125 48.4375Z" fill="url(#paint8_linear_59_53)"/>
<defs>
<linearGradient id="paint0_linear_59_53" x1="28.6828" y1="16.6469" x2="28.6828" y2="32.1969" gradientUnits="userSpaceOnUse">
<stop stop-color="#4DABCF"/>
<stop offset="1" stop-color="#275769"/>
</linearGradient>
<linearGradient id="paint1_linear_59_53" x1="50.4108" y1="27.4094" x2="50.4108" y2="43.1344" gradientUnits="userSpaceOnUse">
<stop stop-color="#4DABCF"/>
<stop offset="1" stop-color="#275769"/>
</linearGradient>
<linearGradient id="paint2_linear_59_53" x1="71.8858" y1="16.7594" x2="71.8858" y2="31.7281" gradientUnits="userSpaceOnUse">
<stop stop-color="#4DABCF"/>
<stop offset="1" stop-color="#275769"/>
</linearGradient>
<linearGradient id="paint3_linear_59_53" x1="50.15" y1="6.25" x2="50.15" y2="20.6156" gradientUnits="userSpaceOnUse">
<stop stop-color="#4DABCF"/>
<stop offset="1" stop-color="#275769"/>
</linearGradient>
<linearGradient id="paint4_linear_59_53" x1="61.6657" y1="65.825" x2="61.6657" y2="93.75" gradientUnits="userSpaceOnUse">
<stop stop-color="#4DABCF"/>
<stop offset="1" stop-color="#275769"/>
</linearGradient>
<linearGradient id="paint5_linear_59_53" x1="61.6532" y1="39.9188" x2="61.6532" y2="67.5938" gradientUnits="userSpaceOnUse">
<stop stop-color="#4DABCF"/>
<stop offset="1" stop-color="#275769"/>
</linearGradient>
<linearGradient id="paint6_linear_59_53" x1="83.3516" y1="55.4812" x2="83.3516" y2="82.2125" gradientUnits="userSpaceOnUse">
<stop stop-color="#4DABCF"/>
<stop offset="1" stop-color="#275769"/>
</linearGradient>
<linearGradient id="paint7_linear_59_53" x1="83.3421" y1="29.6594" x2="83.3421" y2="56.1469" gradientUnits="userSpaceOnUse">
<stop stop-color="#4DABCF"/>
<stop offset="1" stop-color="#275769"/>
</linearGradient>
<linearGradient id="paint8_linear_59_53" x1="28.2516" y1="29.0312" x2="28.2516" y2="93.5156" gradientUnits="userSpaceOnUse">
<stop stop-color="#4D77CF"/>
<stop offset="1" stop-color="#273C69"/>
</linearGradient>
</defs>
</svg>
