<svg width="100" height="100" viewBox="0 0 100 100" fill="none" xmlns="http://www.w3.org/2000/svg">
<path d="M82.7472 55.9389H17.1519V52.2397C17.1519 49.7541 19.1667 47.7392 21.6521 47.7392H78.2466C80.7323 47.7392 82.7472 49.7541 82.7472 52.2397V55.9389Z" fill="url(#paint0_linear_59_45)"/>
<path d="M78.1772 98.8388H21.7213C19.1976 98.8388 17.1516 96.7929 17.1516 94.2691V55.9388H82.7469V94.2691C82.7469 96.7929 80.7012 98.8388 78.1772 98.8388Z" fill="url(#paint1_linear_59_45)"/>
<path d="M81.9326 55.1952V51.8777C81.9326 49.9192 80.3451 48.3315 78.3866 48.3315H21.6133C19.6548 48.3315 18.0673 49.9192 18.0673 51.8777V55.1952H81.9326ZM81.9326 94.7432V56.6829H18.0673V94.7432C18.0673 96.7017 19.6548 98.2892 21.6133 98.2892H78.3866C80.3451 98.2892 81.9326 96.7017 81.9326 94.7432ZM21.9462 46.844L22.1671 44.4325L21.2292 46.8633C21.3564 46.8537 21.4835 46.844 21.6133 46.844H21.9462ZM77.6644 42.7787L77.9919 46.844H78.3866C78.5979 46.844 78.8047 46.8612 79.0091 46.8866L77.6644 42.7787ZM82.1676 48.5657C82.9449 49.4518 83.4203 50.609 83.4203 51.8777V94.7432C83.4203 97.5189 81.1621 99.7769 78.3866 99.7769H21.6133C18.8378 99.7769 16.5796 97.5189 16.5796 94.7432V51.8777C16.5796 50.5325 17.113 49.3119 17.9757 48.4077L22.9939 35.4007L25.1822 11.4962L27.6511 11.7221L25.6793 33.2604L26.3738 33.5283L25.4313 35.9717L24.436 46.844H75.5047L72.6707 11.6625L75.1417 11.4633L76.8133 32.2124L76.8143 32.2121L82.1676 48.5657ZM22.1035 50.7563C22.7238 50.7563 23.2267 51.2591 23.2267 51.8795C23.2267 52.4999 22.7238 53.0027 22.1035 53.0027C21.4831 53.0027 20.9802 52.4999 20.9802 51.8795C20.9802 51.2591 21.4831 50.7563 22.1035 50.7563ZM25.9437 50.7563C26.5641 50.7563 27.0669 51.2591 27.0669 51.8795C27.0669 52.4999 26.5641 53.0027 25.9437 53.0027C25.3233 53.0027 24.8205 52.4999 24.8205 51.8795C24.8205 51.2591 25.3233 50.7563 25.9437 50.7563ZM29.6629 50.7563C30.2833 50.7563 30.7861 51.2591 30.7861 51.8795C30.7861 52.4999 30.2833 53.0027 29.6629 53.0027C29.0425 53.0027 28.5397 52.4999 28.5397 51.8795C28.5397 51.2591 29.0425 50.7563 29.6629 50.7563Z" fill="black"/>
<path d="M25.9846 75.13C26.1776 74.9068 26.2791 74.6133 26.2791 74.2491C26.2791 73.8846 26.1776 73.6029 25.9846 73.3796C25.7815 73.1564 25.4969 73.0507 25.1313 73.0507H23.3436V75.4588H25.1313C25.4969 75.4588 25.7815 75.353 25.9846 75.13ZM25.1313 71.606C25.9032 71.606 26.5128 71.841 26.9697 72.3225C27.4269 72.8039 27.6504 73.4499 27.6504 74.2491C27.6504 75.0593 27.4269 75.6937 26.9802 76.1752C26.523 76.6572 25.9136 76.9037 25.1313 76.9037H23.3436V80.1449H21.9622V71.606H25.1313ZM32.5842 76.8427V74.3518H34.0719V79.9759H32.5842V79.4688C32.1333 79.9195 31.5474 80.1448 30.8147 80.1448C30.1385 80.1448 29.5975 79.9195 29.1805 79.48C28.7636 79.0406 28.5607 78.4769 28.5607 77.7782V74.3518H30.0484V77.4625C30.0484 77.8571 30.1497 78.184 30.3638 78.4208C30.5667 78.6573 30.8372 78.7813 31.1865 78.7813C32.1221 78.7813 32.5842 78.1388 32.5842 76.8427ZM39.8756 78.3868C40.1686 78.0824 40.3151 77.6767 40.3151 77.1696C40.3151 76.6626 40.1686 76.2453 39.8756 75.9412C39.5712 75.6367 39.1994 75.479 38.7373 75.479C38.3203 75.479 37.9485 75.6367 37.6216 75.9524C37.2947 76.268 37.137 76.6735 37.137 77.1696C37.137 77.6654 37.2947 78.0714 37.6216 78.3754C37.9485 78.6913 38.3203 78.849 38.7373 78.849C39.1994 78.849 39.5712 78.6913 39.8756 78.3868ZM38.9965 74.1829C39.7292 74.1829 40.3827 74.4649 40.9352 75.0284C41.4874 75.603 41.7576 76.313 41.7576 77.1696C41.7576 78.026 41.4874 78.7362 40.9352 79.2996C40.3827 79.8634 39.7404 80.1448 38.9965 80.1448C38.2639 80.1448 37.644 79.9419 37.137 79.5365V82.6589H35.6493V74.3519H37.137V74.8028C37.6328 74.3858 38.2527 74.1829 38.9965 74.1829ZM47.1107 78.3868C47.4037 78.0824 47.5502 77.6767 47.5502 77.1696C47.5502 76.6626 47.4037 76.2453 47.1107 75.9412C46.8063 75.6367 46.4345 75.479 45.9724 75.479C45.5554 75.479 45.1836 75.6367 44.8567 75.9524C44.5298 76.268 44.3718 76.6735 44.3718 77.1696C44.3718 77.6654 44.5298 78.0714 44.8567 78.3754C45.1836 78.6913 45.5554 78.849 45.9724 78.849C46.4345 78.849 46.8063 78.6913 47.1107 78.3868ZM46.2314 74.1829C46.964 74.1829 47.6178 74.4649 48.1703 75.0284C48.7222 75.603 48.9927 76.313 48.9927 77.1696C48.9927 78.026 48.7222 78.7362 48.1703 79.2996C47.6178 79.8634 46.9755 80.1448 46.2314 80.1448C45.499 80.1448 44.8792 79.9419 44.3718 79.5365V82.6589H42.8844V74.3519H44.3718V74.8028C44.8679 74.3858 45.4878 74.1829 46.2314 74.1829ZM51.19 76.5158H53.9062C53.8161 76.1665 53.6469 75.9075 53.4104 75.738C53.1735 75.5691 52.8921 75.479 52.5762 75.479C52.2722 75.479 51.979 75.5691 51.7198 75.7495C51.4493 75.9299 51.2688 76.1889 51.19 76.5158ZM52.5762 74.1829C53.3427 74.1829 54.0077 74.4534 54.56 74.9832C55.1122 75.5242 55.3939 76.2114 55.4279 77.0568V77.5641H51.1451C51.2239 77.9584 51.3929 78.2738 51.6524 78.5109C51.9114 78.7474 52.2043 78.8712 52.5537 78.8712C53.1963 78.8712 53.6584 78.6234 53.9513 78.1276L55.2814 78.4093C55.0446 78.9842 54.684 79.4127 54.2106 79.7056C53.7372 79.9986 53.185 80.1448 52.5537 80.1448C51.7422 80.1448 51.0547 79.8634 50.5025 79.3111C49.9503 78.7589 49.6683 78.0375 49.6683 77.1696C49.6683 76.302 49.9503 75.5806 50.5138 75.0169C51.066 74.4649 51.7537 74.1829 52.5762 74.1829ZM59.5298 78.7589C59.8115 78.7589 60.1272 78.6685 60.4653 78.4884L60.8935 79.7281C60.3749 80.0098 59.8904 80.145 59.4282 80.145C58.7407 80.145 58.1998 79.9534 57.8052 79.5813C57.411 79.2098 57.2193 78.6573 57.2193 77.9022V75.569H56.0133V74.3518H57.2193V72.6502H58.7071V74.3518H60.5441V75.569H58.7071V77.7894C58.7071 78.432 58.9776 78.7589 59.5298 78.7589ZM62.6511 76.5158H65.3673C65.2772 76.1665 65.108 75.9075 64.8714 75.738C64.6346 75.5691 64.3532 75.479 64.0373 75.479C63.7333 75.479 63.4401 75.5691 63.1809 75.7495C62.9104 75.9299 62.7299 76.1889 62.6511 76.5158ZM64.0373 74.1829C64.8038 74.1829 65.4688 74.4534 66.0211 74.9832C66.5733 75.5242 66.855 76.2114 66.8889 77.0568V77.5641H62.6062C62.685 77.9584 62.854 78.2738 63.1135 78.5109C63.3725 78.7474 63.6655 78.8712 64.0148 78.8712C64.6574 78.8712 65.1195 78.6234 65.4124 78.1276L66.7422 78.4093C66.5057 78.9842 66.1451 79.4127 65.6717 79.7056C65.1983 79.9986 64.6461 80.1448 64.0148 80.1448C63.2033 80.1448 62.5158 79.8634 61.9636 79.3111C61.4114 78.7589 61.1294 78.0375 61.1294 77.1696C61.1294 76.302 61.4114 75.5806 61.9748 75.0169C62.5271 74.4649 63.2148 74.1829 64.0373 74.1829ZM69.3339 76.5158H72.0501C71.96 76.1665 71.7908 75.9075 71.5543 75.738C71.3175 75.5691 71.036 75.479 70.7201 75.479C70.4162 75.479 70.1229 75.5691 69.8637 75.7495C69.5932 75.9299 69.4128 76.1889 69.3339 76.5158ZM70.7201 74.1829C71.4866 74.1829 72.1517 74.4534 72.7039 74.9832C73.2561 75.5242 73.5378 76.2114 73.5718 77.0568V77.5641H69.289C69.3679 77.9584 69.5368 78.2738 69.7963 78.5109C70.0553 78.7474 70.3483 78.8712 70.6976 78.8712C71.3402 78.8712 71.8023 78.6234 72.0953 78.1276L73.4253 78.4093C73.1885 78.9842 72.8279 79.4127 72.3545 79.7056C71.8812 79.9986 71.3289 80.1448 70.6976 80.1448C69.8861 80.1448 69.1987 79.8634 68.6464 79.3111C68.0942 78.7589 67.8122 78.0375 67.8122 77.1696C67.8122 76.302 68.0942 75.5806 68.6577 75.0169C69.2099 74.4649 69.8976 74.1829 70.7201 74.1829ZM78.2034 74.273C78.3726 74.273 78.5078 74.2843 78.5982 74.3179L78.5191 75.7495H78.1924C76.8512 75.7495 76.1859 76.5498 76.1859 78.1616V79.9759H74.6985V74.3519H76.1859V75.3775C76.6932 74.6448 77.3695 74.273 78.2034 74.273Z" fill="black"/>
<path d="M71.6958 34.6314L79.7222 30.7564V26.8818L61.1783 18.0248L79.7222 8.47628V4.73999L71.9726 1.14182L50.0154 12.0742L27.689 1.14182L20.4929 5.01675V8.3379L37.9295 17.8865L20.4929 26.7434V30.7564L27.9658 34.6314L50.1075 23.2836L71.6958 34.6314Z" fill="url(#paint2_linear_59_45)"/>
<path d="M72.7022 33.0508V31.3819L78.7439 28.251V30.1257L72.7022 33.0508ZM20.9792 28.2072L26.8173 31.5586V32.8928L20.9792 29.9393V28.2072ZM50.8834 21.1591L70.9666 31.0821V33.0774L50.8834 22.7889V21.1591ZM28.5528 31.3725L49.1478 21.1612V22.7884L28.5528 33.2082V31.3725ZM43.1356 14.6871L22.2943 4.62494L27.6922 1.8816L50.0155 13.4542L71.9651 1.88656L77.5536 4.74896L57.2296 14.9772C56.417 15.386 56.4183 16.5466 57.2317 16.9537L77.346 27.0208L72.1324 29.7223L50.0155 18.39L27.5074 29.9537L22.3666 27.0025L43.1471 16.673C43.9703 16.2638 43.9635 15.0868 43.1356 14.6871ZM21.2387 8.03408V6.20275L40.6763 15.9004L38.7113 16.6855L21.2387 8.03408ZM61.0961 16.7933C61.0695 16.7772 59.2345 15.9114 59.2345 15.9114L78.7439 6.09282V7.93225L61.0961 16.7933ZM63.0489 17.755L80.1964 9.14504C80.37 9.05784 80.4797 8.88003 80.4797 8.68577V4.61188C80.4797 4.41893 80.3716 4.24243 80.2001 4.15444L72.2019 0.0578373C72.0554 -0.0170975 71.8818 -0.0173586 71.7351 0.057054L50.246 10.9615C50.1011 11.0351 49.9298 11.0359 49.7841 10.9631L27.9165 0.0539208C27.7711 -0.018664 27.5995 -0.0178807 27.4544 0.0557485L19.5246 4.08551C19.352 4.17324 19.2434 4.35027 19.2434 4.54374V8.68342C19.2434 8.87899 19.3544 9.05758 19.5298 9.14426L36.7494 17.6518L19.6095 26.1623C19.4379 26.2477 19.3277 26.4213 19.3243 26.6132L19.2494 30.6839C19.2458 30.8811 19.3554 31.0628 19.5311 31.1518L27.7653 35.3179C27.9108 35.3913 28.0823 35.3915 28.228 35.3184L49.7836 24.4947C49.9293 24.4213 50.1014 24.4218 50.2471 24.4957L71.534 35.3192C71.6771 35.3918 71.846 35.3936 71.9907 35.3236L80.1896 31.3542C80.3669 31.2683 80.4797 31.0886 80.4797 30.8918V26.6385C80.4797 26.4424 80.3682 26.2636 80.1922 26.1772L63.0489 17.755Z" fill="black"/>
<defs>
<linearGradient id="paint0_linear_59_45" x1="49.9495" y1="47.7392" x2="49.9495" y2="55.9389" gradientUnits="userSpaceOnUse">
<stop stop-color="#DFDEDF"/>
<stop offset="1" stop-color="#797879"/>
</linearGradient>
<linearGradient id="paint1_linear_59_45" x1="49.9493" y1="55.9388" x2="49.9493" y2="98.8388" gradientUnits="userSpaceOnUse">
<stop stop-color="white"/>
<stop offset="1" stop-color="#999999"/>
</linearGradient>
<linearGradient id="paint2_linear_59_45" x1="50.1075" y1="1.14182" x2="50.1075" y2="34.6314" gradientUnits="userSpaceOnUse">
<stop stop-color="#00D8A2"/>
<stop offset="1" stop-color="#007256"/>
</linearGradient>
</defs>
</svg>
