<svg width="100" height="100" viewBox="0 0 100 100" fill="none" xmlns="http://www.w3.org/2000/svg">
<g clip-path="url(#clip0_57_33)">
<path d="M61.7111 61.9509L59.7929 65.6582C59.2151 66.775 58.1454 67.4632 56.9875 67.4632H42.2933C41.1354 67.4632 40.0657 66.775 39.4878 65.6582L37.5695 61.9509H61.7111ZM67.081 51.5725L63.6988 58.1091H35.5817L32.1997 51.5725H67.081ZM63.8231 41.4238L67.0864 47.7309H32.1943L35.4576 41.4238H63.8231ZM56.9875 31.8298C58.1454 31.8298 59.2151 32.5181 59.7929 33.6349L61.8353 37.582H37.4454L39.4878 33.6349C40.0657 32.5181 41.1354 31.8298 42.2933 31.8298H56.9875Z" fill="#00435B"/>
<path d="M20.9074 30.1096C19.2796 21.3244 18.9303 14.5862 19.9824 9.69335C20.6082 6.78336 21.7523 4.40943 23.4919 2.69669C25.3285 0.888473 27.6505 0.00118001 30.2596 0.00118001C34.5638 0.00118001 39.0886 2.18582 43.9241 6.33606C45.8964 8.02887 47.9434 10.0693 50.0693 12.4584C50.2385 12.216 50.4298 11.9873 50.6429 11.7759C56.6531 5.81446 61.7133 2.11053 66.0413 0.682402C68.6147 -0.16676 71.0308 -0.247661 73.231 0.576481C75.5535 1.44642 77.404 3.2447 78.7096 5.76352C80.8644 9.92048 81.4326 15.3828 80.6293 22.1273C80.3018 24.8764 79.742 27.871 78.9511 31.1157C79.2495 31.1558 79.5486 31.2294 79.8448 31.3387C87.4705 34.1514 92.8703 37.1761 96.1395 40.6329C98.0846 42.6896 99.3547 44.9793 99.8139 47.5138C100.299 50.189 99.826 52.8723 98.5219 55.3893C96.3712 59.5402 92.4167 62.814 86.7829 65.4071C84.5208 66.4484 81.9614 67.3914 79.1017 68.2394C79.2322 68.5674 79.3334 68.9156 79.4011 69.281C81.0289 78.0661 81.3782 84.8043 80.326 89.6972C79.7003 92.6071 78.5562 94.9811 76.8166 96.6938C74.98 98.502 72.6579 99.3893 70.0489 99.3893C65.7447 99.3893 61.2199 97.2047 56.3844 93.0544C54.3911 91.3436 52.3215 89.2778 50.1713 86.8557C49.95 87.2409 49.6784 87.5989 49.3571 87.9175C43.3469 93.879 38.2867 97.5829 33.9587 99.0111C31.3853 99.8602 28.9692 99.9411 26.769 99.117C24.4465 98.247 22.596 96.4488 21.2904 93.9299C19.1356 89.773 18.5674 84.3107 19.3707 77.5662C19.71 74.7177 20.2987 71.6057 21.1356 68.2249C20.8085 68.188 20.48 68.1111 20.1552 67.9913C12.5295 65.1785 7.12969 62.1538 3.86052 58.697C1.91544 56.6404 0.645278 54.3507 0.186124 51.8161C-0.298514 49.1409 0.174046 46.4576 1.47813 43.9406C3.62884 39.7897 7.58335 36.5159 13.2171 33.9228C15.5466 32.8505 18.1914 31.8825 21.1547 31.0149C21.0491 30.7272 20.9658 30.4248 20.9074 30.1096Z" fill="#002B3B"/>
<path d="M74.0809 70.1446C74.8391 69.995 75.5657 70.5361 75.735 71.3662L75.7443 71.4153L75.8251 71.8824C78.4461 87.2201 76.5998 94.8889 70.2862 94.8889C64.1089 94.8889 56.2452 88.3451 46.6953 75.2575C46.4843 74.9683 46.3705 74.6063 46.3733 74.2338C46.3802 73.366 47.0059 72.6655 47.78 72.6467L47.8248 72.6464L48.3277 72.6504C52.3464 72.6746 56.2531 72.5186 60.0479 72.1825C64.5275 71.7857 69.2052 71.1063 74.0809 70.1446ZM30.7211 58.5508L30.7453 58.5963L30.9976 59.0865C33.0198 62.9996 35.1267 66.7136 37.3182 70.2285C39.8991 74.3679 42.8015 78.5584 46.0253 82.8C46.524 83.4562 46.4671 84.4302 45.9045 85.0094L45.8679 85.0458L45.5435 85.3566C34.8771 95.5291 27.9444 97.5599 24.7453 91.4489C21.6138 85.4672 22.7492 74.5908 28.1512 58.8197C28.2699 58.4731 28.493 58.1831 28.7824 57.9993C29.4588 57.5696 30.3163 57.8177 30.7211 58.5508ZM79.4935 35.9187L79.5373 35.9346L79.9387 36.0889C93.1046 41.1865 98.1067 46.7886 94.9449 52.8952C91.8526 58.8676 82.8629 63.216 67.9758 65.9404C67.6438 66.0012 67.3032 65.9305 67.0131 65.7407C66.3281 65.2925 66.0992 64.311 66.5019 63.5485C68.6342 59.5115 70.5546 55.4946 72.2631 51.4978C74.2008 46.965 76.0193 42.0997 77.7185 36.9019C77.9761 36.1138 78.7328 35.6858 79.4497 35.9045L79.4935 35.9187ZM32.9869 33.3522C33.672 33.8004 33.9008 34.7819 33.4981 35.5444C31.3659 39.5814 29.4455 43.5983 27.7369 47.5951C25.7992 52.1278 23.9808 56.9931 22.2816 62.191C22.0187 62.9951 21.2361 63.4244 20.5065 63.1741L20.4628 63.1583L20.0613 63.004C6.89542 57.9064 1.89334 52.3043 5.05511 46.1977C8.14742 40.2253 17.1371 35.8769 32.0243 33.1525C32.3563 33.0917 32.6969 33.1624 32.9869 33.3522ZM75.2548 8.24455C78.3862 14.2263 77.2509 25.1027 71.8489 40.8738C71.7301 41.2203 71.507 41.5103 71.2176 41.6942C70.5413 42.1238 69.6838 41.8757 69.279 41.1426L69.2548 41.0971L69.0024 40.607C66.9802 36.6939 64.8734 32.9799 62.6818 29.465C60.1009 25.3256 57.1986 21.135 53.9747 16.8935C53.476 16.2373 53.533 15.2633 54.0956 14.684L54.1322 14.6476L54.4566 14.3369C65.123 4.16435 72.0557 2.13357 75.2548 8.24455ZM30.2535 4.60431C36.4308 4.60431 44.2944 11.1481 53.8443 24.2358C54.0553 24.525 54.1691 24.887 54.1663 25.2595C54.1594 26.1272 53.5337 26.8278 52.7596 26.8466L52.7148 26.8469L52.2119 26.8429C48.1933 26.8187 44.2865 26.9746 40.4917 27.3108C36.0121 27.7076 31.3345 28.3869 26.4587 29.3487C25.7005 29.4982 24.9739 28.9572 24.8046 28.1271L24.7953 28.078L24.7145 27.6108C22.0935 12.2731 23.9398 4.60431 30.2535 4.60431Z" fill="url(#paint0_linear_57_33)"/>
<path d="M43.4745 32.03H55.8088C57.6126 32.03 59.2787 33.1039 60.1766 34.8452L66.3698 46.8565C67.2607 48.5844 67.2607 50.7087 66.3698 52.4366L60.1766 64.4479C59.2787 66.1892 57.6126 67.2631 55.8088 67.2631H43.4745C41.6706 67.2631 40.0045 66.1892 39.1067 64.4479L32.9135 52.4366C32.0225 50.7087 32.0225 48.5844 32.9135 46.8565L39.1067 34.8452C40.0045 33.1039 41.6706 32.03 43.4745 32.03ZM53.9289 35.6553C55.7337 35.6553 57.4005 36.7303 58.298 38.4731L62.6167 46.8591C63.5059 48.5856 63.5059 50.7075 62.6167 52.434L58.298 60.82C57.4005 62.5628 55.7337 63.6378 53.9289 63.6378H45.3543C43.5495 63.6378 41.8827 62.5628 40.9852 60.82L36.6666 52.434C35.7774 50.7075 35.7774 48.5856 36.6666 46.8591L40.9852 38.4731C41.8827 36.7303 43.5495 35.6553 45.3543 35.6553H53.9289ZM51.9027 39.6204H47.3805C45.5776 39.6204 43.9122 40.6932 43.014 42.4332L40.7319 46.8541C39.8393 48.5832 39.8393 50.7099 40.7319 52.439L43.014 56.8599C43.9122 58.5999 45.5776 59.6727 47.3805 59.6727H51.9027C53.7057 59.6727 55.3711 58.5999 56.2693 56.8599L58.5514 52.439C59.444 50.7099 59.444 48.5832 58.5514 46.8541L56.2693 42.4332C55.3711 40.6932 53.7057 39.6204 51.9027 39.6204ZM49.9517 43.4156C51.7533 43.4156 53.4176 44.4868 54.3164 46.2247L54.6399 46.8504C55.535 48.5814 55.535 50.7117 54.6399 52.4427L54.3164 53.0683C53.4176 54.8063 51.7533 55.8775 49.9517 55.8775H49.3316C47.53 55.8775 45.8656 54.8063 44.9669 53.0683L44.6434 52.4427C43.7483 50.7117 43.7483 48.5814 44.6434 46.8504L44.9669 46.2247C45.8656 44.4868 47.53 43.4156 49.3316 43.4156H49.9517ZM49.6424 47.1542C48.8406 47.1542 48.1011 47.6292 47.7008 48.4004C47.3005 49.1714 47.3005 50.1217 47.7008 50.8927C48.1011 51.6639 48.8406 52.1389 49.6408 52.1389C50.4427 52.1389 51.1821 51.6639 51.5825 50.8927C51.9828 50.1217 51.9828 49.1714 51.5825 48.4004C51.1821 47.6292 50.4427 47.1542 49.6424 47.1542ZM31.4749 49.6465H35.5064Z" fill="url(#paint1_linear_57_33)"/>
</g>
<defs>
<linearGradient id="paint0_linear_57_33" x1="50" y1="4.60431" x2="50" y2="94.889" gradientUnits="userSpaceOnUse">
<stop stop-color="#D42637"/>
<stop offset="1" stop-color="#76111B"/>
</linearGradient>
<linearGradient id="paint1_linear_57_33" x1="49.2564" y1="32.03" x2="49.2564" y2="67.2631" gradientUnits="userSpaceOnUse">
<stop stop-color="#FFD94C"/>
<stop offset="1" stop-color="#99822E"/>
</linearGradient>
<clipPath id="clip0_57_33">
<rect width="100" height="100" fill="white"/>
</clipPath>
</defs>
</svg>
