<svg width="100" height="100" viewBox="0 0 100 100" fill="none" xmlns="http://www.w3.org/2000/svg">
<g clip-path="url(#clip0_59_40)">
<path d="M89.4619 0.00127828C89.7055 -0.0141106 89.9366 0.11042 90.0577 0.322303C90.1787 0.534186 90.1687 0.796498 90.0318 0.998514L65.3858 34.4771C65.2052 34.681 64.9459 34.7977 64.6735 34.7977C64.4011 34.7977 64.1418 34.681 63.9612 34.4771L55.271 24.7897C55.0588 24.5694 54.758 24.4573 54.4533 24.485C54.1486 24.5127 53.873 24.6772 53.7039 24.9322L48.4328 31.6279C48.266 32.0049 48.3208 32.4432 48.5753 32.7676L64.2461 49.0083C64.4267 49.2122 64.6861 49.3289 64.9584 49.3289C65.2308 49.3289 65.4901 49.2122 65.6707 49.0083L96.4426 14.39C96.6243 14.1947 96.9058 14.1284 97.1555 14.222C97.4053 14.3157 97.5738 14.5508 97.5823 14.8173V99.0125C97.5941 99.2048 97.5228 99.3929 97.3866 99.5291C97.2504 99.6654 97.0623 99.7366 96.87 99.7248H3.12983C2.93754 99.7366 2.74943 99.6654 2.61321 99.5291C2.47698 99.3929 2.40573 99.2048 2.41752 99.0125V0.713589C2.40573 0.5213 2.47698 0.33319 2.61321 0.196966C2.74943 0.0607415 2.93754 -0.0105112 3.12983 0.00127828H89.4619ZM65.2434 56.8437C61.0021 56.7691 56.9146 58.431 53.9286 61.4439C50.9426 64.4568 49.3174 68.5591 49.4301 72.7995C49.4301 82.6294 56.5532 88.8977 65.8132 88.8977C70.0998 89.0044 74.3033 87.7033 77.78 85.1937C78.1023 84.901 78.1628 84.417 77.9225 84.054L75.3582 80.2075C75.0699 79.8769 74.5793 79.8156 74.2185 80.065C71.9896 81.5872 69.3664 82.4286 66.668 82.4869C61.6818 82.4869 58.5476 79.3527 57.9778 75.6487C57.9881 75.4958 58.1098 75.3741 58.2627 75.3638H79.7745C80.2331 75.3328 80.5983 74.9676 80.6293 74.509V73.6543C80.6293 63.6819 74.3609 56.8437 65.2434 56.8437ZM44.0165 51.4301C39.6894 47.8932 34.2144 46.0682 28.6306 46.3015C18.9431 46.3015 12.9597 52 12.9597 58.8382C12.9597 74.3666 36.6085 69.3804 36.6085 76.646C36.6085 78.9254 34.3291 81.2047 29.4853 81.2047C24.885 81.2427 20.4467 79.5082 17.0911 76.361C16.8908 76.1737 16.6194 76.082 16.3465 76.1093C16.0736 76.1365 15.8258 76.2802 15.6665 76.5035L11.9625 81.6321C11.7221 81.9951 11.7827 82.4792 12.105 82.7718C15.9514 86.3334 21.365 88.7552 28.9155 88.7552C40.0275 88.7552 45.4411 83.0568 45.726 75.6487C45.726 60.2628 22.0773 64.6791 22.0773 58.1259C22.0773 55.704 24.2142 53.9945 27.9183 53.9945C32.0014 53.9385 35.978 55.2976 39.1728 57.8409C39.3606 57.9948 39.6025 58.0664 39.8438 58.0396C40.0852 58.0128 40.3055 57.8898 40.4549 57.6985L44.159 52.7123C44.3128 52.5245 44.3845 52.2825 44.3576 52.0412C44.3308 51.7999 44.2078 51.5796 44.0165 51.4301ZM65.3858 63.112C69.2607 62.8953 72.6057 65.7985 72.9363 69.6653C72.926 69.8182 72.8043 69.9399 72.6514 69.9502H58.1203C57.9674 69.9399 57.8457 69.8182 57.8353 69.6653C58.3117 65.8745 61.5657 63.0502 65.3858 63.112Z" fill="url(#paint0_linear_59_40)"/>
</g>
<defs>
<linearGradient id="paint0_linear_59_40" x1="49.9999" y1="0" x2="49.9999" y2="99.7261" gradientUnits="userSpaceOnUse">
<stop stop-color="#2CB134"/>
<stop offset="1" stop-color="#134B16"/>
</linearGradient>
<clipPath id="clip0_59_40">
<rect width="100" height="100" fill="white"/>
</clipPath>
</defs>
</svg>
