<svg width="100" height="100" viewBox="0 0 100 100" fill="none" xmlns="http://www.w3.org/2000/svg">
<path d="M56.4694 15.3523V30.7061L83.0609 46.06V30.7061L56.4694 15.3523ZM3.28467 30.7061V46.06L16.5804 53.7353V38.383L3.28467 30.7061ZM43.172 38.383L29.8762 46.06V92.1184L43.172 99.7953V69.0892L56.4694 76.7661V61.4122L43.172 53.7353V38.383Z" fill="url(#paint0_linear_59_63)"/>
<path d="M56.4693 15.3523L16.5803 38.383V53.7353L43.1719 38.383V53.7353L56.4693 46.06V15.3523ZM96.3582 23.0292L83.0608 30.7061V46.06L96.3582 38.383V23.0292ZM69.765 53.7353L56.4693 61.4122V76.7661L69.765 69.0892V53.7353ZM56.4693 76.7661L43.1719 69.0892V99.7953L56.4693 92.1184V76.7661Z" fill="url(#paint1_linear_59_63)"/>
<path d="M56.4694 0L3.28467 30.7061L16.5804 38.383L56.4694 15.3523L83.0609 30.7061L96.3583 23.0292L56.4694 0ZM56.4694 46.06L43.172 53.7353L56.4694 61.4123L69.7651 53.7353L56.4694 46.06Z" fill="#F8BF3C"/>
<defs>
<linearGradient id="paint0_linear_59_63" x1="43.1728" y1="15.3523" x2="43.1728" y2="99.7953" gradientUnits="userSpaceOnUse">
<stop stop-color="#E55B2D"/>
<stop offset="1" stop-color="#7F3219"/>
</linearGradient>
<linearGradient id="paint1_linear_59_63" x1="56.4692" y1="15.3523" x2="56.4692" y2="99.7953" gradientUnits="userSpaceOnUse">
<stop stop-color="#ED8E24"/>
<stop offset="1" stop-color="#875115"/>
</linearGradient>
</defs>
</svg>
